<?xml version="1.0" encoding="UTF-8" standalone="no"?>
<svg
   viewBox="0 0 37.06 37.06"
   version="1.1"
   id="svg16"
   sodipodi:docname="key2.svg"
   inkscape:version="1.1.1 (3bf5ae0d25, 2021-09-20)"
   xmlns:inkscape="http://www.inkscape.org/namespaces/inkscape"
   xmlns:sodipodi="http://sodipodi.sourceforge.net/DTD/sodipodi-0.dtd"
   xmlns:xlink="http://www.w3.org/1999/xlink"
   xmlns="http://www.w3.org/2000/svg"
   xmlns:svg="http://www.w3.org/2000/svg"
   xmlns:rdf="http://www.w3.org/1999/02/22-rdf-syntax-ns#"
   xmlns:cc="http://creativecommons.org/ns#"
   xmlns:dc="http://purl.org/dc/elements/1.1/">
  <sodipodi:namedview
     id="namedview18"
     pagecolor="#ffffff"
     bordercolor="#666666"
     borderopacity="1.0"
     inkscape:pageshadow="2"
     inkscape:pageopacity="0.0"
     inkscape:pagecheckerboard="0"
     showgrid="false"
     inkscape:zoom="19.400971"
     inkscape:cx="18.581544"
     inkscape:cy="18.53"
     inkscape:window-width="2400"
     inkscape:window-height="1421"
     inkscape:window-x="-9"
     inkscape:window-y="-9"
     inkscape:window-maximized="1"
     inkscape:current-layer="svg16" />
  <defs
     id="defs8">
    <linearGradient
       id="a"
       y1="791.5"
       x2="1"
       y2="791.5"
       gradientTransform="matrix(37.06 0 0 -37.06 0 29353.1)"
       gradientUnits="userSpaceOnUse">
      <stop
         offset="0"
         stop-color="#ff4148"
         id="stop2" />
      <stop
         offset="1"
         stop-color="#ff793a"
         id="stop4" />
    </linearGradient>
    <linearGradient
       id="b"
       x2="1"
       gradientTransform="matrix(15.56613,1.0475339,1.489964,-22.140547,-1164.3846,17538.623)"
       xlink:href="#a" />
    <linearGradient
       id="b-0"
       x2="1"
       gradientTransform="matrix(-13.579582,2.4554595,-3.568788,-15.403388,2844.4145,12209.219)"
       xlink:href="#a-5" />
    <linearGradient
       id="a-5"
       y1="791.5"
       x2="1"
       y2="791.5"
       gradientTransform="matrix(37.06,0,0,-37.06,0,29353.1)"
       gradientUnits="userSpaceOnUse">
      <stop
         offset="0"
         stop-color="#ff4148"
         id="stop2-7" />
      <stop
         offset="1"
         stop-color="#ff793a"
         id="stop4-7" />
    </linearGradient>
    <linearGradient
       id="a-9"
       y1="791.5"
       x2="1"
       y2="791.5"
       gradientTransform="matrix(21.207664,0,0,-22.129,6.5605645,17531.973)"
       gradientUnits="userSpaceOnUse">
      <stop
         offset="0"
         stop-color="#ff4148"
         id="stop178" />
      <stop
         offset="1"
         stop-color="#ff793a"
         id="stop180" />
    </linearGradient>
  </defs>
  <title
     id="title10">Ресурс 1</title>
  <path
     d="M18.53 1v1A16.53 16.53 0 1 1 2 18.53 16.55 16.55 0 0 1 18.53 2V0a18.53 18.53 0 1 0 18.53 18.53A18.53 18.53 0 0 0 18.53 0v1z"
     fill="url(#a)"
     id="path12" />
  <metadata
     id="metadata20">
    <rdf:RDF>
      <cc:Work
         rdf:about="">
        <dc:title>Ресурс 1</dc:title>
      </cc:Work>
    </rdf:RDF>
  </metadata>
  <path
     d="m 27.781793,26.143796 -0.0746,1.835858 a 1.8243881,1.7700568 0 0 1 -1.871862,1.710836 l -2.224533,-0.07896 a 0.6782112,0.65801369 0 0 1 -0.46797,-0.217146 L 22.980057,29.2233 21.41339,29.164079 A 1.0580095,1.0265013 0 0 1 20.396073,28.084936 V 27.268999 H 19.602566 A 1.0580095,1.0265013 0 0 1 18.612377,26.196437 V 25.3805 H 17.81887 a 1.0580095,1.0265013 0 0 1 -0.990188,-1.079142 l 0.06104,-1.625294 C 16.754079,22.524721 16.516705,22.274675 16.265767,22.01805 A 1.7769133,1.7239959 0 0 1 14.15653,21.623242 l -0.03391,-0.04606 -0.08817,-0.177664 a 7.1008712,6.8894033 0 0 1 -5.69019,-2.35569 7.1619102,6.9486245 0 0 1 0.6782112,-9.7583436 7.0805249,6.8696629 0 0 1 10.0239608,0.6580137 7.1144354,6.9025636 0 0 1 1.559886,6.1524289 1.8718629,1.8161178 0 0 1 0,1.737156 l 6.992358,7.843523 a 0.6782112,0.65801369 0 0 1 0.169552,0.46061 z m -8.525115,-7.751401 a 0.6782112,0.65801369 0 0 1 -0.169553,-0.381648 v -0.171084 a 0.6782112,0.65801369 0 0 1 0.210246,-0.539571 0.48152995,0.46718972 0 0 0 0,-0.658014 0.6782112,0.65801369 0 0 1 -0.142425,-0.625113 5.7512309,5.5799561 0 0 0 -1.193651,-5.218049 5.7037562,5.5338951 0 0 0 -8.0707135,-0.519831 5.7783594,5.6062766 0 0 0 -0.542569,7.896165 5.6630635,5.4944143 0 0 0 3.9404075,1.90824 5.7444488,5.5733759 0 0 0 1.098702,0 0.6782112,0.65801369 0 0 1 0.712121,0.388228 c 0,0.07238 0,0.276366 0.332324,0.348747 a 0.34588771,0.33558698 0 0 0 0.318759,-0.0658 l 0.09495,-0.09212 a 0.6782112,0.65801369 0 0 1 0.976624,0 c 0,0 0.325541,0.322427 0.637518,0.658014 0.678211,0.710654 0.820636,0.875158 0.807072,1.191004 l -0.06104,1.520012 1.166523,0.03948 a 0.6782112,0.65801369 0 0 1 0.48153,0.217144 0.6782112,0.65801369 0 0 1 0.183117,0.48035 l -0.04747,1.184425 1.166523,0.05264 a 0.6782112,0.65801369 0 0 1 0.48153,0.217145 0.6782112,0.65801369 0 0 1 0.183117,0.48035 l -0.04747,1.184424 1.53954,0.05922 a 0.6782112,0.65801369 0 0 1 0.467966,0.217145 l 0.16277,0.171084 1.932902,0.07238 a 0.44083728,0.4277089 0 0 0 0.440837,-0.427709 l 0.06104,-1.585813 z m -5.161187,-3.428252 a 2.4008676,2.3293684 0 0 1 -3.391056,-0.217145 2.4279961,2.355689 0 0 1 0.22381,-3.290068 2.4076497,2.3359486 0 0 1 3.391055,0.217144 2.4279961,2.355689 0 0 1 -0.230591,3.290069 z m -0.813853,-2.434651 a 1.0240989,0.99360067 0 0 0 -1.458154,-0.09212 1.0512274,1.0199212 0 0 0 -0.09495,1.42789 1.0240989,0.99360067 0 0 0 0.678211,0.342167 1.030881,1.0001808 0 0 0 0.779943,-0.243465 1.0512274,1.0199212 0 0 0 0.09495,-1.42789 z m 11.644886,14.476302 a 0.6782112,0.65801369 0 0 1 -0.969842,-0.0658 l -5.68341,-6.330092 a 0.68745664,0.66698379 0 0 1 1.037663,-0.875158 l 5.68341,6.330091 a 0.6782112,0.65801369 0 0 1 -0.06782,0.94096 z"
     fill="url(#a)"
     id="path187"
     style="fill:url(#a-9);stroke-width:0.668036" />
</svg>
