<?xml version="1.0" encoding="UTF-8" standalone="no"?>
<!-- Generator: Adobe Illustrator 22.1.0, SVG Export Plug-In . SVG Version: 6.00 Build 0)  -->

<svg
   version="1.1"
   x="0px"
   y="0px"
   viewBox="0 0 125.60001 41.9"
   xml:space="preserve"
   id="svg49"
   sodipodi:docname="logo.svg"
   inkscape:version="1.1.2 (b8e25be833, 2022-02-05)"
   width="125.60001"
   height="41.900002"
   xmlns:inkscape="http://www.inkscape.org/namespaces/inkscape"
   xmlns:sodipodi="http://sodipodi.sourceforge.net/DTD/sodipodi-0.dtd"
   xmlns:xlink="http://www.w3.org/1999/xlink"
   xmlns="http://www.w3.org/2000/svg"
   xmlns:svg="http://www.w3.org/2000/svg"><defs
   id="defs53"><color-profile
     name="Agfa-:-Swop-Standard"
     xlink:href="../../../../../../../../Windows/system32/spool/drivers/color/RSWOP.icm"
     id="color-profile1591" /></defs><sodipodi:namedview
   id="namedview51"
   pagecolor="#ffffff"
   bordercolor="#666666"
   borderopacity="1.0"
   inkscape:pageshadow="2"
   inkscape:pageopacity="0.0"
   inkscape:pagecheckerboard="0"
   showgrid="false"
   inkscape:zoom="6.5687301"
   inkscape:cx="77.868932"
   inkscape:cy="27.326439"
   inkscape:window-width="1920"
   inkscape:window-height="1013"
   inkscape:window-x="-9"
   inkscape:window-y="-9"
   inkscape:window-maximized="1"
   inkscape:current-layer="g20"
   width="150.60001px" />
<style
   type="text/css"
   id="style2">
	.st0{fill:#201600;}
	.st1{fill:url(#SVGID_1_);}
	.st2{fill:#020202;}
	.st3{fill:#171717;}
</style>
<g
   id="Слой_1"
   transform="matrix(1.0784327,0,0,1.107489,-49.216109,-3.6131277)">
	<g
   id="g20"
   transform="translate(0,1.9376534)">
		
		
		
		
		
		
		
		
	<text
   xml:space="preserve"
   style="font-style:normal;font-weight:normal;font-size:40.3924px;line-height:1.25;font-family:sans-serif;fill:#2f3c44;fill-opacity:1;stroke:none;stroke-width:1.00981"
   x="76.689438"
   y="-22.416574"
   id="text11265"
   transform="scale(0.97228096,1.0285093)"><tspan
     sodipodi:role="line"
     id="tspan11263"
     x="76.689438"
     y="-22.416574"
     style="font-style:normal;font-variant:normal;font-weight:normal;font-stretch:normal;font-family:'Comic Sans MS';-inkscape-font-specification:'Comic Sans MS';stroke-width:1.00981;fill:#2f3c44;fill-opacity:1" /><tspan
     sodipodi:role="line"
     x="76.689438"
     y="29.829422"
     style="font-style:normal;font-variant:normal;font-weight:normal;font-stretch:normal;font-family:Dubai;-inkscape-font-specification:Dubai;stroke-width:1.00981;fill:#2f3c44;fill-opacity:1"
     id="tspan25229">Shop</tspan></text></g>
</g>
<g
   id="Слой_2"
   transform="matrix(0.97707446,0,0,0.94598367,5.0443215,0.29151193)">
	<linearGradient
   id="SVGID_1_"
   gradientUnits="userSpaceOnUse"
   x1="0"
   y1="20.9744"
   x2="78.905701"
   y2="20.9744"
   gradientTransform="matrix(0,-0.5979302,0.55056877,0,4.1913877,55.14923)">
		<stop
   offset="8.421053e-02"
   style="stop-color:#FF4547"
   id="stop23" />
		<stop
   offset="1"
   style="stop-color:#FF6E3D"
   id="stop25" />
	</linearGradient>
	<path
   class="st1"
   d="m 27.260219,20.409479 v 0 c 0,0 0.04337,0.51798 -0.276707,1.286749 -0.320082,0.768769 -1.266535,0.770284 -1.266535,0.770284 L 6.212132,22.16173 6.1507692,18.840682 23.820772,19.185853 c 0.06248,-1.637839 -1.033385,-4.58382 -2.702192,-5.858966 -1.225413,-0.936347 -2.671808,-1.724917 -5.094312,-1.844502 -4.955118,-0.179379 -9.4232833,3.568262 -9.6478626,9.012646 -0.1057619,5.009733 3.9857066,8.419772 8.8307116,8.838323 2.724448,0.273081 4.606675,-0.264058 4.606675,-0.264058 1.274921,-0.24254 4.829748,-2.033298 5.228314,-0.367612 1.309755,1.78333 -4.003312,4.443708 -8.793261,4.204535 -0.110112,0 -1.101136,-0.05979 -1.156194,-0.05979 C 8.8161684,32.368083 2.7105615,26.99959 2.9307893,20.242979 3.151016,13.366782 9.9173053,7.7333584 16.248845,7.9725306 c 3.083187,0.1195856 6.185137,1.3611549 8.277301,3.8126684 1.982047,2.331929 2.608947,5.25044 2.734076,8.62428 z"
   id="path28"
   style="fill:url(#SVGID_1_);stroke-width:0.573759"
   sodipodi:nodetypes="cczccccscccccccccccc" />
	
	
	
</g>
</svg>
