<?xml version="1.0" encoding="UTF-8" standalone="no"?>
<svg
   data-name="Layer 1"
   width="1041.32"
   height="572.19"
   viewBox="0 0 1041.32 572.19"
   version="1.1"
   id="svg128"
   sodipodi:docname="ninja.svg"
   inkscape:version="1.1.2 (b8e25be833, 2022-02-05)"
   xmlns:inkscape="http://www.inkscape.org/namespaces/inkscape"
   xmlns:sodipodi="http://sodipodi.sourceforge.net/DTD/sodipodi-0.dtd"
   xmlns="http://www.w3.org/2000/svg"
   xmlns:svg="http://www.w3.org/2000/svg">
  <defs
     id="defs132" />
  <sodipodi:namedview
     id="namedview130"
     pagecolor="#ffffff"
     bordercolor="#666666"
     borderopacity="1.0"
     inkscape:pageshadow="2"
     inkscape:pageopacity="0.0"
     inkscape:pagecheckerboard="0"
     showgrid="false"
     inkscape:zoom="1.2036126"
     inkscape:cx="458.20391"
     inkscape:cy="287.46791"
     inkscape:window-width="1920"
     inkscape:window-height="1013"
     inkscape:window-x="-9"
     inkscape:window-y="-9"
     inkscape:window-maximized="1"
     inkscape:current-layer="svg128" />
  <title
     id="title2">gamer</title>
  <path
     d="M437.27,520.77c1.07-2.15,2.85-3.85,4.33-5.75a8.33,8.33,0,0,1-.67.5,11.07,11.07,0,0,0-3,1.89,6.24,6.24,0,0,0-1.08,2.55l-2.55,9.91c.5-.63,1-1.25,1.51-1.87A17.51,17.51,0,0,1,437.27,520.77Z"
     transform="translate(-79.34 -163.91)"
     fill="#f2f2f2"
     id="path4" />
  <path
     d="M678,527.46a11.23,11.23,0,0,1-1,3.23,45.09,45.09,0,0,1-1.69,12.44,38.19,38.19,0,0,0-1.05,5.19c-2.36,16.14-4.64,33-.61,48.64a5.92,5.92,0,0,1,1.53-2.5c2.66-3.27,3.71-7.53,4.5-11.67,4.15-21.81,3-44.06,2-66.34a7.36,7.36,0,0,0-2.18-1.64,20.14,20.14,0,0,1-.07,2.91A96.74,96.74,0,0,1,678,527.46Z"
     transform="translate(-79.34 -163.91)"
     fill="#f2f2f2"
     id="path6" />
  <path
     d="M537.78,520.8A10.22,10.22,0,0,0,537,517a11.82,11.82,0,0,0-1.94-2.68l-2.16-2.46c-1.1,26.12-3.44,52.31,1.42,77.89.79,4.14,1.84,8.4,4.5,11.67a5.92,5.92,0,0,1,1.53,2.5c4-15.6,1.75-32.5-.61-48.64a38.19,38.19,0,0,0-1.05-5.19A49.58,49.58,0,0,1,537.47,530,47,47,0,0,0,537.78,520.8Z"
     transform="translate(-79.34 -163.91)"
     fill="#f2f2f2"
     id="path8" />
  <path
     d="M550.16,465.67c2.89,4.76,4.69,10.4,6.31,15.79l.69,2.33c-.33-7.9-.49-15.81-.55-23.72q-2.34,2.08-4.71,4.11Z"
     transform="translate(-79.34 -163.91)"
     fill="#f2f2f2"
     id="path10" />
  <path
     d="M573.41,732.24a53.47,53.47,0,0,0-1.27-16.52c-.88-3.43-2.24-6.78-2.36-10.31a31.61,31.61,0,0,1,.86-7c4.11-20.91,5.88-42.89-.34-63.27-1.67-5.46-3.88-10.74-5.58-16.18a39.35,39.35,0,0,1-2.82,5.9,6.11,6.11,0,0,0-3.41-4,20.14,20.14,0,0,1-.07,2.91,96.74,96.74,0,0,1-1.39,9.74,9.87,9.87,0,0,1-1.23,3.65,8.22,8.22,0,0,1-3.22,2.66c.58,1.32,1.16,2.63,1.73,4L550.14,645c2.74,6,.46,12.85-1,19.22-5.23,22.19-.52,45.89-3,68.33Z"
     transform="translate(-79.34 -163.91)"
     fill="#f2f2f2"
     id="path12" />
  <path
     d="M558.27,414.77c1.07-2.15,2.85-3.85,4.33-5.75a8.33,8.33,0,0,1-.67.5,11.07,11.07,0,0,0-3,1.89,6.24,6.24,0,0,0-1.08,2.55l-2.55,9.91c.5-.63,1-1.25,1.51-1.87A17.51,17.51,0,0,1,558.27,414.77Z"
     transform="translate(-79.34 -163.91)"
     fill="#f2f2f2"
     id="path14" />
  <path
     d="M658.78,414.8A10.22,10.22,0,0,0,658,411a11.82,11.82,0,0,0-1.94-2.68l-2.16-2.46c-1.08,25.73-3.36,51.52,1.22,76.73.81-2.73,1.63-5.45,2.44-8.17a83.07,83.07,0,0,1,4.81-13.09c-.47-4-1.05-8.07-1.63-12.05a38.19,38.19,0,0,0-1.05-5.19A49.58,49.58,0,0,1,658.47,424,47,47,0,0,0,658.78,414.8Z"
     transform="translate(-79.34 -163.91)"
     fill="#f2f2f2"
     id="path16" />
  <path
     d="M615.17,611.37l-3.42,120.45,9-.1a376.12,376.12,0,0,1-2.16-44.14c0-4.29.15-8.63-.74-12.82-.63-2.93-1.73-5.74-2.33-8.68a51.92,51.92,0,0,1-.67-10.65Z"
     transform="translate(-79.34 -163.91)"
     fill="#f2f2f2"
     id="path18" />
  <path
     d="M537.83,611.44c.14-.34.28-.66.41-1,.47-1.22.89-2.45,1.28-3.69l-.08.14c-.79,1.3-1.65,2.55-2.54,3.78C537.22,610.91,537.53,611.17,537.83,611.44Z"
     transform="translate(-79.34 -163.91)"
     fill="#f2f2f2"
     id="path20" />
  <path
     d="M265.78,476.8A10.22,10.22,0,0,0,265,473a11.82,11.82,0,0,0-1.94-2.68l-2.16-2.46c-1.1,26.12-3.44,52.31,1.42,77.89.79,4.14,1.84,8.4,4.5,11.67a5.92,5.92,0,0,1,1.53,2.5c4-15.6,1.75-32.5-.61-48.64a38.19,38.19,0,0,0-1-5.19A49.58,49.58,0,0,1,265.47,486,47,47,0,0,0,265.78,476.8Z"
     transform="translate(-79.34 -163.91)"
     fill="#f2f2f2"
     id="path22" />
  <path
     d="M265.83,567.44c.14-.34.28-.66.41-1,.47-1.22.89-2.45,1.28-3.69l-.08.14c-.79,1.3-1.65,2.55-2.54,3.78C265.22,566.91,265.53,567.17,265.83,567.44Z"
     transform="translate(-79.34 -163.91)"
     fill="#f2f2f2"
     id="path24" />
  <path
     d="M222.17,673.37q-.88,31.35-1.78,62.7l4.29-.05c-.64-2.66-1.59-5.25-2.14-7.94a51.92,51.92,0,0,1-.67-10.65Z"
     transform="translate(-79.34 -163.91)"
     fill="#f2f2f2"
     id="path26" />
  <path
     d="M286.42,733.77a8.22,8.22,0,0,1-3.22-2.66,9.87,9.87,0,0,1-1.23-3.65,96.74,96.74,0,0,1-1.39-9.74,20.14,20.14,0,0,1-.07-2.91,6.11,6.11,0,0,0-3.41,4,46.63,46.63,0,0,1-5.62-16.75c-.3,1-.61,2.1-1,3.15-2.08,6.19-5.1,12.18-5.7,18.68a37,37,0,0,0,1,11.67l19.86-.21Z"
     transform="translate(-79.34 -163.91)"
     fill="#f2f2f2"
     id="path28" />
  <path
     d="M299.48,700.75c.39,1.24.81,2.47,1.28,3.69.13.34.27.66.41,1,.3-.27.61-.53.93-.77-.89-1.23-1.75-2.48-2.54-3.78Z"
     transform="translate(-79.34 -163.91)"
     fill="#f2f2f2"
     id="path30" />
  <path
     d="M442.75,721.55a123.92,123.92,0,0,1-2.87-18.11q-2.38-22-4.76-44c-.05-.39-.09-.77-.13-1.16-.06.19-.11.38-.17.57-1.21,3.55-3.61,6.55-6,9.47s-5.38,5.93-8.89,5.08a9.57,9.57,0,0,1-3.81-2.36l-8-6.91q-2.37-2-4.71-4.11c-.07,9.65-.29,19.3-.79,28.93-.16,3-.41,6.23-1.85,8.9a101.86,101.86,0,0,1,4.86,28.34c.07,2.61,0,5.21-.08,7.82l23.44-.25h.14l17.63-.19C445.29,729.63,443.81,725.66,442.75,721.55Z"
     transform="translate(-79.34 -163.91)"
     fill="#f2f2f2"
     id="path32" />
  <path
     d="M403.15,622c.5.62,1,1.24,1.51,1.87L402.11,614a6.24,6.24,0,0,0-1.08-2.55,11.07,11.07,0,0,0-3-1.89,8.33,8.33,0,0,1-.67-.5c1.48,1.9,3.26,3.6,4.33,5.75A17.51,17.51,0,0,1,403.15,622Z"
     transform="translate(-79.34 -163.91)"
     fill="#f2f2f2"
     id="path34" />
  <path
     d="M432.14,578.07c.63,6.94,1,13.91,1.35,20.88s.71,13.76,1.06,20.64a101.62,101.62,0,0,1,3.7-15.69c-1.44-2.67-1.69-5.85-1.85-8.9-.5-9.63-.72-19.28-.79-28.93-1.53,1.37-3.08,2.71-4.64,4A56.16,56.16,0,0,1,432.14,578.07Z"
     transform="translate(-79.34 -163.91)"
     fill="#f2f2f2"
     id="path36" />
  <path
     d="M299.29,649.32c-2.36,16.14-4.64,33-.61,48.64a5.92,5.92,0,0,1,1.53-2.5c2.66-3.27,3.71-7.53,4.5-11.67,4.86-25.58,2.52-51.77,1.42-77.89L304,608.36A11.82,11.82,0,0,0,302,611a10.22,10.22,0,0,0-.81,3.76,47,47,0,0,0,.31,9.18,49.58,49.58,0,0,1-1.19,20.15A38.19,38.19,0,0,0,299.29,649.32Z"
     transform="translate(-79.34 -163.91)"
     fill="#f2f2f2"
     id="path38" />
  <path
     d="M660.9,731.29l7.84-.09c-4.18-24.07,1.85-49.92-3.83-74-.89-3.75-2-7.68-2.28-11.49-2,5.32-4.29,10.56-4.81,16.18-.91,9.74,3.67,19.06,5.37,28.68,2.34,13.27-.83,26.8-2.24,40.2C660.93,731,660.92,731.12,660.9,731.29Z"
     transform="translate(-79.34 -163.91)"
     fill="#f2f2f2"
     id="path40" />
  <path
     d="M930.48,719.22c-9.08-27.06,0-57.23-6.57-85-1.51-6.37-3.79-13.27-1-19.22l-4.17-1.27c.57-1.32,1.15-2.63,1.73-4a10.35,10.35,0,0,1-2.24-1.54l-3.06,28.21a123.92,123.92,0,0,1-2.87,18.11c-1.73,6.66-4.54,13-6.55,19.55-5.37,17.57-4.78,36.32-1.89,54.56l30-.33C932.76,725.29,931.51,722.28,930.48,719.22Z"
     transform="translate(-79.34 -163.91)"
     fill="#f2f2f2"
     id="path42" />
  <path
     d="M916.45,451.74l.08-.28.36-1.17a12.91,12.91,0,0,0-2.82-1.77,8.33,8.33,0,0,1-.67-.5C914.39,449.28,915.5,450.46,916.45,451.74Z"
     transform="translate(-79.34 -163.91)"
     fill="#f2f2f2"
     id="path44" />
  <path
     d="M815.48,539.75c.39,1.24.81,2.47,1.28,3.69.13.34.27.66.41,1,.3-.27.61-.53.93-.77-.89-1.23-1.75-2.48-2.54-3.78Z"
     transform="translate(-79.34 -163.91)"
     fill="#f2f2f2"
     id="path46" />
  <path
     d="M938.71,559.79c3.07-16.12,3.27-32.48,2.72-48.92a6.39,6.39,0,0,1-5.47,1.58l-.17-.05a42.47,42.47,0,0,1-1.45,7.73,38.19,38.19,0,0,0-1.05,5.19c-2.36,16.14-4.64,33-.61,48.64a5.92,5.92,0,0,1,1.53-2.5C936.87,568.19,937.92,563.93,938.71,559.79Z"
     transform="translate(-79.34 -163.91)"
     fill="#f2f2f2"
     id="path48" />
  <path
     d="M494.07,733.1q0-7.86.1-15.73-.23,7.88-.44,15.74Z"
     transform="translate(-79.34 -163.91)"
     fill="#f2f2f2"
     id="path50" />
  <path
     d="M1117.24,299.29q-1-5.66-2.37-11.11c-9.7-39.22-32.41-70.52-74-87.46q-5.35-2.17-11.12-4a189.09,189.09,0,0,0-26.76-6.4c-87.24-14.59-160.6-7.65-226.73,5.51-3.73.73-7.43,1.5-11.12,2.28-92.7,19.59-171.64,49.94-255.87,47.29-3.69-.11-7.4-.29-11.11-.53-36.72-2.44-74.6-11.43-115.17-30.55-47.95-22.59-96.71-15-140.7,11.9-24.83,15.16-48.14,36.48-68.93,62l-.07.08q-4.4,5.4-8.64,11C97,389.18,59.44,523.58,90.25,627.73q1.66,5.63,3.6,11.12c8.9,25.39,22.14,48.73,40.3,68.87a86.39,86.39,0,0,0,39.09,24.75c2.58.79,5.21,1.45,7.87,2,.75-12.64-.12-25.28-3.81-37.36-2-6.57-4.82-12.89-6.55-19.55a123.92,123.92,0,0,1-2.87-18.11q-2.38-22-4.76-44c-1-9.06-2-18.15-1.73-27.25a101.86,101.86,0,0,1,4.86-28.34c-1.44-2.67-1.69-5.85-1.85-8.9-.5-9.63-.72-19.28-.79-28.93q-2.34,2.08-4.71,4.11l-8.05,6.91a9.57,9.57,0,0,1-3.81,2.36c-3.51.85-6.62-2.27-8.89-5.08s-4.76-5.92-6-9.47a29.65,29.65,0,0,1-1.09-10.16c.08-4.39.3-8.77.53-13.15L133.51,461c.36-7,.72-13.94,1.35-20.88.45-5,1.09-10.09,3.66-14.35,4.83-8,15.19-10.8,24.6-10.12a3.51,3.51,0,0,1-.09-3,5.31,5.31,0,0,1,2.42-2l13.88-7.43a7.7,7.7,0,0,1,3.26-1.15,3.84,3.84,0,0,1,1.78.37l2.69-1.88a7,7,0,0,1,2-1.09,4.72,4.72,0,0,1,2.73.13,10.93,10.93,0,0,0,1.15-4.33,15.41,15.41,0,0,0-1.18-5.46A26.39,26.39,0,0,1,181.3,369c-3-1.68-6.86-2.63-8.08-6.17-.83-2.4.16-5.06-.18-7.58a6.13,6.13,0,0,1-1.48-2.33c-.86-2.5.26-5.28-.2-7.88-.26-1.42-1-2.83-.71-4.25a6.21,6.21,0,0,1,1.58-2.66l9.83-11.65c2.17-2.56,4.41-5.19,7.39-6.72,7.14-3.66,15.69,0,23.71,0,2.69,0,5.47-.41,8,.45a16.71,16.71,0,0,1,4.94,3.14l11,9c3.7,3,7.69,6.58,8.05,11.34a10.56,10.56,0,0,1-.62,4.24,11,11,0,0,1,2.27,5.67c.25,3.3-1.35,6.45-3.19,9.2a48.7,48.7,0,0,1-10,10.85,26.37,26.37,0,0,1-6.33,12.73,82.56,82.56,0,0,0,2.84,10.3,1.22,1.22,0,0,1,.07.17,5,5,0,0,1,2.6.91,13.66,13.66,0,0,1,2.16,2,3.08,3.08,0,0,1,1.46-1.22c1.48-.6,3.14.08,4.59.74,4.41,2,8.9,4.08,12.49,7.33a15.85,15.85,0,0,1,3.26,4.14A20.53,20.53,0,0,1,271.17,414c7.56,5.18,10.67,14.64,13.3,23.42l5.89,19.69c2.58,8.63,5.18,17.34,5.78,26.32.55,8.18-.57,16.36-1.69,24.47-1.55,11.22,2.1,23.54,2.15,34.87,0,2.91,0,5.85-.07,8.8a20.52,20.52,0,0,1,13.65-2.89,15.85,15.85,0,0,1,3.26-4.14c3.59-3.25,8.08-5.31,12.49-7.33,1.45-.66,3.11-1.34,4.59-.74a3.08,3.08,0,0,1,1.46,1.22,13.66,13.66,0,0,1,2.16-2,5,5,0,0,1,2.6-.91,1.22,1.22,0,0,1,.07-.17,82.56,82.56,0,0,0,2.84-10.3,26.37,26.37,0,0,1-6.33-12.73,48.7,48.7,0,0,1-10-10.85c-1.84-2.75-3.44-5.9-3.19-9.2a11,11,0,0,1,2.27-5.67,10.56,10.56,0,0,1-.62-4.24c.36-4.76,4.35-8.32,8.05-11.34l11-9a16.71,16.71,0,0,1,4.94-3.14c2.54-.86,5.32-.45,8-.45,8,0,16.57-3.64,23.71,0,3,1.53,5.22,4.16,7.39,6.72l9.83,11.65a6.21,6.21,0,0,1,1.58,2.66c.28,1.42-.45,2.83-.71,4.25-.46,2.6.66,5.38-.2,7.88a6.13,6.13,0,0,1-1.48,2.33c-.34,2.52.65,5.18-.18,7.58-1.22,3.54-5.06,4.49-8.08,6.17a26.39,26.39,0,0,1-10.45,20.72,15.41,15.41,0,0,0-1.18,5.46,10.93,10.93,0,0,0,1.15,4.33,4.72,4.72,0,0,1,2.73-.13,7,7,0,0,1,2,1.09l2.69,1.88a3.84,3.84,0,0,1,1.78-.37,7.7,7.7,0,0,1,3.26,1.15l13.88,7.43a9.3,9.3,0,0,1,1.7,1.13c.11-2.69.23-5.39.37-8.08L405.51,505c.36-7,.72-13.94,1.35-20.88.45-5,1.09-10.09,3.66-14.35,4.83-8,15.19-10.8,24.6-10.12a3.51,3.51,0,0,1-.09-3,5.31,5.31,0,0,1,2.42-2l13.88-7.43a7.7,7.7,0,0,1,3.26-1.15,3.84,3.84,0,0,1,1.78.37l2.69-1.88a7,7,0,0,1,2-1.09,4.72,4.72,0,0,1,2.73.13,10.93,10.93,0,0,0,1.15-4.33,15.41,15.41,0,0,0-1.18-5.46A26.39,26.39,0,0,1,453.3,413c-3-1.68-6.86-2.63-8.08-6.17-.83-2.4.16-5.06-.18-7.58a6.13,6.13,0,0,1-1.48-2.33c-.86-2.5.26-5.28-.2-7.88a25.14,25.14,0,0,1-.76-3.43,28.78,28.78,0,0,0-2.5,6.48c-1.41,5.67-1.16,11.61-2,17.39-.3,2-.87,4.14-2.56,5.19-1.31.82-3,.75-4.41,1.34-2.36,1-3.67,3.6-4,6.13s.07,5.1.07,7.66c0,6.69-3.21,13.61-9.05,16.87-7.69,4.3-17.24,1.45-25.55-1.47a22.55,22.55,0,0,0,9.54-6.62L393,436.73a59.22,59.22,0,0,0,14.57-9.67,12.55,12.55,0,0,0,3.72-4.88c1-2.81.07-6,1-8.81,1.55-4.81,7.44-6.63,10.44-10.69,2.63-3.54,2.72-8.29,2.71-12.69l-.05-16.78c0-4.83.31-10.4,4.16-13.33,4.29-3.27,10.37-1.41,15.77-1.44,5.69,0,11.11-2.37,16.77-3,5.34-.61,14.25,3.13,14.1,7.37a62.76,62.76,0,0,0,9,.93c2.69,0,5.47-.41,8,.45a16.71,16.71,0,0,1,4.94,3.14l11,9c3.7,3,7.69,6.58,8,11.34a10.56,10.56,0,0,1-.62,4.24,11,11,0,0,1,2.27,5.67c.25,3.3-1.35,6.45-3.19,9.2a48.7,48.7,0,0,1-10,10.85,26.37,26.37,0,0,1-6.33,12.73,82.56,82.56,0,0,0,2.84,10.3,1.22,1.22,0,0,1,.07.17,5,5,0,0,1,2.6.91,13.66,13.66,0,0,1,2.16,2,3.08,3.08,0,0,1,1.46-1.22c1.48-.6,3.14.08,4.59.74a55.44,55.44,0,0,1,11,6.1c0-.2,0-.41,0-.61.08-4.39.3-8.77.53-13.15L526.51,399c.36-7,.72-13.94,1.35-20.88.45-5,1.09-10.09,3.66-14.35,4.83-8,15.19-10.8,24.6-10.12a3.51,3.51,0,0,1-.09-3,5.31,5.31,0,0,1,2.42-2l13.88-7.43a7.7,7.7,0,0,1,3.26-1.15,3.84,3.84,0,0,1,1.78.37l2.69-1.88a7,7,0,0,1,2-1.09,4.72,4.72,0,0,1,2.73.13,10.93,10.93,0,0,0,1.15-4.33,15.41,15.41,0,0,0-1.18-5.46A26.39,26.39,0,0,1,574.3,307c-3-1.68-6.86-2.63-8.08-6.17-.83-2.4.16-5.06-.18-7.58a6.13,6.13,0,0,1-1.48-2.33c-.86-2.5.26-5.28-.2-7.88-.26-1.42-1-2.83-.71-4.25a6.21,6.21,0,0,1,1.58-2.66l9.83-11.65c2.17-2.56,4.41-5.19,7.39-6.72,7.14-3.66,15.69,0,23.71,0,2.69,0,5.47-.41,8,.45a16.71,16.71,0,0,1,4.94,3.14l11,9c3.7,3,7.69,6.58,8,11.34a10.56,10.56,0,0,1-.62,4.24,11,11,0,0,1,2.27,5.67c.25,3.3-1.35,6.45-3.19,9.2a48.7,48.7,0,0,1-10,10.85,26.37,26.37,0,0,1-6.33,12.73,82.56,82.56,0,0,0,2.84,10.3,1.22,1.22,0,0,1,.07.17,5,5,0,0,1,2.6.91,13.66,13.66,0,0,1,2.16,2,3.08,3.08,0,0,1,1.46-1.22c1.48-.6,3.14.08,4.59.74,4.41,2,8.9,4.08,12.49,7.33a15.85,15.85,0,0,1,3.26,4.14A20.53,20.53,0,0,1,664.17,352c7.56,5.18,10.67,14.64,13.3,23.42l5.89,19.69c2.58,8.63,5.18,17.34,5.78,26.32.51,7.64-.44,15.29-1.48,22.88.25-.26.5-.52.78-.77,3.59-3.25,8.08-5.31,12.49-7.33,1.45-.66,3.11-1.34,4.59-.74a3.08,3.08,0,0,1,1.46,1.22,13.66,13.66,0,0,1,2.16-2,5,5,0,0,1,2.6-.91,1.22,1.22,0,0,1,.07-.17,82.56,82.56,0,0,0,2.84-10.3,26.37,26.37,0,0,1-6.33-12.73,48.7,48.7,0,0,1-10-10.85c-1.84-2.75-3.44-5.9-3.19-9.2a11,11,0,0,1,2.27-5.67,10.56,10.56,0,0,1-.62-4.24c.36-4.76,4.35-8.32,8-11.34l11-9a16.71,16.71,0,0,1,4.94-3.14c2.54-.86,5.32-.45,8-.45a62.76,62.76,0,0,0,9-.93c-.15-4.24,8.76-8,14.1-7.37,5.65.65,11.08,3,16.77,3,5.4,0,11.48-1.83,15.77,1.44,3.85,2.93,4.17,8.5,4.16,13.33L788.56,383c0,4.4.08,9.15,2.71,12.69,2.86,3.86,8.33,5.71,10.18,10,2.26-5.81,5.32-11.2,10.38-14.66a20.53,20.53,0,0,1,14.35-3.32,15.85,15.85,0,0,1,3.26-4.14c3.59-3.25,8.08-5.31,12.49-7.33,1.45-.66,3.11-1.34,4.59-.74a3.08,3.08,0,0,1,1.46,1.22,13.66,13.66,0,0,1,2.16-2,5,5,0,0,1,2.6-.91,1.22,1.22,0,0,1,.07-.17,82.56,82.56,0,0,0,2.84-10.3,26.37,26.37,0,0,1-6.33-12.73,48.7,48.7,0,0,1-10-10.85c-1.84-2.75-3.44-5.9-3.19-9.2a11,11,0,0,1,2.27-5.67,10.56,10.56,0,0,1-.62-4.24c.36-4.76,4.35-8.32,8-11.34l11-9a16.71,16.71,0,0,1,4.94-3.14c2.54-.86,5.32-.45,8-.45a62.76,62.76,0,0,0,9-.93c-.15-4.24,8.76-8,14.1-7.37,5.65.65,11.08,3,16.77,3,5.4,0,11.48-1.83,15.77,1.44,3.85,2.93,4.17,8.5,4.16,13.33L929.56,323c0,4.4.08,9.15,2.71,12.69,3,4.06,8.89,5.88,10.44,10.69.9,2.82,0,6,1,8.81a12.55,12.55,0,0,0,3.72,4.88,58.93,58.93,0,0,0,7.15,5.52,12,12,0,0,1,1.89-3.69,10.56,10.56,0,0,1-.62-4.24c.36-4.76,4.35-8.32,8-11.34l11-9a16.71,16.71,0,0,1,4.94-3.14c2.54-.86,5.32-.45,8-.45,8,0,16.57-3.64,23.71,0,3,1.53,5.22,4.16,7.39,6.72l9.83,11.65a6.21,6.21,0,0,1,1.58,2.66c.28,1.42-.45,2.83-.71,4.25-.46,2.6.66,5.38-.2,7.88a6.13,6.13,0,0,1-1.48,2.33c-.34,2.52.65,5.18-.18,7.58-1.22,3.54-5.06,4.49-8.08,6.17a26.39,26.39,0,0,1-10.45,20.72,15.41,15.41,0,0,0-1.18,5.46,10.93,10.93,0,0,0,1.15,4.33,4.72,4.72,0,0,1,2.73-.13,7,7,0,0,1,2,1.09l2.69,1.88a3.84,3.84,0,0,1,1.78-.37,7.7,7.7,0,0,1,3.26,1.15l13.88,7.43a5.31,5.31,0,0,1,2.42,2,3.51,3.51,0,0,1-.09,3c9.41-.68,19.77,2.11,24.6,10.12,2.57,4.26,3.21,9.39,3.66,14.35.63,6.94,1,13.91,1.35,20.88l1.89,36.64c.23,4.38.45,8.76.53,13.15a29.65,29.65,0,0,1-1.09,10.16c-1.21,3.55-3.61,6.55-6,9.47s-5.38,5.93-8.89,5.08a9.57,9.57,0,0,1-3.81-2.36l-8.05-6.91q-2.37-2-4.71-4.11c-.07,9.65-.29,19.3-.79,28.93-.16,3-.41,6.23-1.85,8.9a101.86,101.86,0,0,1,4.86,28.34,179.22,179.22,0,0,1-1.32,23.49q1.26-2.67,2.53-5.4C1084.19,527.44,1134.3,393.62,1117.24,299.29Z"
     transform="translate(-79.34 -163.91)"
     fill="#f2f2f2"
     id="path52" />
  <path
     d="M164.89,476l-2.55,9.91c.5-.63,1-1.25,1.51-1.87a17.51,17.51,0,0,1,1.42-7.23c1.07-2.15,2.85-3.85,4.33-5.75a8.33,8.33,0,0,1-.67.5,11.07,11.07,0,0,0-3,1.89A6.24,6.24,0,0,0,164.89,476Z"
     transform="translate(-79.34 -163.91)"
     fill="#f2f2f2"
     id="path54" />
  <path
     d="M778.15,521c.5.62,1,1.24,1.51,1.87L777.11,513a6.24,6.24,0,0,0-1.08-2.55,11.07,11.07,0,0,0-3-1.89,8.33,8.33,0,0,1-.67-.5c1.48,1.9,3.26,3.6,4.33,5.75A17.51,17.51,0,0,1,778.15,521Z"
     transform="translate(-79.34 -163.91)"
     fill="#f2f2f2"
     id="path56" />
  <path
     d="M935.17,581.44c.3-.27.61-.53.93-.77-.89-1.23-1.75-2.48-2.54-3.78l-.08-.14c.39,1.24.81,2.47,1.28,3.69C934.89,580.78,935,581.1,935.17,581.44Z"
     transform="translate(-79.34 -163.91)"
     fill="#f2f2f2"
     id="path58" />
  <path
     d="M674.48,599.75c.39,1.24.81,2.47,1.28,3.69.13.34.27.66.41,1,.3-.27.61-.53.93-.77-.89-1.23-1.75-2.48-2.54-3.78Z"
     transform="translate(-79.34 -163.91)"
     fill="#f2f2f2"
     id="path60" />
  <path
     d="M760.7,406a26.39,26.39,0,0,1-10.45,20.72,15.41,15.41,0,0,0-1.18,5.46,10.93,10.93,0,0,0,1.15,4.33,4.72,4.72,0,0,1,2.73-.13,7,7,0,0,1,2,1.09l2.69,1.88a3.84,3.84,0,0,1,1.78-.37,7.7,7.7,0,0,1,3.26,1.15l13.88,7.43a5.31,5.31,0,0,1,2.42,2,3.51,3.51,0,0,1-.09,3,36.49,36.49,0,0,1,8.91.44,148.7,148.7,0,0,1,4.15-16.54,20.59,20.59,0,0,1-5.1-13.72c0-2.56.41-5.13.07-7.66s-1.65-5.15-4-6.13c-1.43-.59-3.1-.52-4.41-1.34-1.69-1-2.26-3.22-2.56-5.19-.87-5.78-.62-11.72-2-17.39a28.78,28.78,0,0,0-2.5-6.48,25.14,25.14,0,0,1-.76,3.43c-.46,2.6.66,5.38-.2,7.88a6.13,6.13,0,0,1-1.48,2.33c-.34,2.52.65,5.18-.18,7.58C767.56,403.35,763.72,404.3,760.7,406Z"
     transform="translate(-79.34 -163.91)"
     fill="#f2f2f2"
     id="path62" />
  <path
     d="M815.29,488.32c-2.36,16.14-4.64,33-.61,48.64a5.92,5.92,0,0,1,1.53-2.5c2.66-3.27,3.71-7.53,4.5-11.67,4.86-25.58,2.52-51.77,1.42-77.89L820,447.36A11.82,11.82,0,0,0,818,450a10.22,10.22,0,0,0-.81,3.76,47,47,0,0,0,.31,9.18,49.58,49.58,0,0,1-1.19,20.15A38.19,38.19,0,0,0,815.29,488.32Z"
     transform="translate(-79.34 -163.91)"
     fill="#f2f2f2"
     id="path64" />
  <path
     d="M800.07,571.14a6.2,6.2,0,0,1-5.11,1.31,9.57,9.57,0,0,1-3.81-2.36l-8-6.91q-2.37-2-4.71-4.11c-.07,9.65-.29,19.3-.79,28.93-.16,3-.41,6.23-1.85,8.9a101.86,101.86,0,0,1,4.86,28.34c.24,9.1-.74,18.19-1.73,27.25q-2.37,22-4.76,44a123.92,123.92,0,0,1-2.87,18.11c-1.38,5.31-3.45,10.41-5.25,15.6l10.21-.11,13-.14h1.6l22-.24a.15.15,0,0,0,0-.07c1.7-9.62,6.28-18.94,5.37-28.68-.6-6.5-3.62-12.49-5.7-18.68-9.08-27.06,0-57.23-6.57-85-1.51-6.37-3.79-13.27-1-19.22l-4.17-1.27c.57-1.32,1.15-2.63,1.73-4A10.26,10.26,0,0,1,800.07,571.14Z"
     transform="translate(-79.34 -163.91)"
     fill="#f2f2f2"
     id="path66" />
  <path
     d="M719.83,710.37q.06,10.14.13,20.28h.44Z"
     transform="translate(-79.34 -163.91)"
     fill="#f2f2f2"
     id="path68" />
  <path
     d="M978.83,687.37q.1,15.32.2,30.61l.66-.39Q979.25,702.48,978.83,687.37Z"
     transform="translate(-79.34 -163.91)"
     fill="#f2f2f2"
     id="path70" />
  <path
     d="M954.59,371.22l-1.69.34a22.08,22.08,0,0,0,3.14,3.05A16.8,16.8,0,0,1,954.59,371.22Z"
     transform="translate(-79.34 -163.91)"
     fill="#f2f2f2"
     id="path72" />
  <path
     d="M860.83,650.37l.3,44.06a51.92,51.92,0,0,1-.67,10.65c-.6,2.94-1.7,5.75-2.33,8.68-.89,4.19-.78,8.53-.74,12.82,0,.86,0,1.72,0,2.58l5.67-.06Q861.95,689.74,860.83,650.37Z"
     transform="translate(-79.34 -163.91)"
     fill="#f2f2f2"
     id="path74" />
  <path
     d="M1037.15,498c.5.62,1,1.24,1.51,1.87l-2.55-9.91a6.24,6.24,0,0,0-1.08-2.55,11.07,11.07,0,0,0-3-1.89,8.33,8.33,0,0,1-.67-.5c1.48,1.9,3.26,3.6,4.33,5.75A17.51,17.51,0,0,1,1037.15,498Z"
     transform="translate(-79.34 -163.91)"
     fill="#f2f2f2"
     id="path76" />
  <path
     d="M901.7,346a26.39,26.39,0,0,1-10.45,20.72,15.41,15.41,0,0,0-1.18,5.46,10.93,10.93,0,0,0,1.15,4.33,4.72,4.72,0,0,1,2.73-.13,7,7,0,0,1,2,1.09l2.69,1.88a3.84,3.84,0,0,1,1.78-.37,7.7,7.7,0,0,1,3.26,1.15l13.88,7.43a5.31,5.31,0,0,1,2.42,2,3.51,3.51,0,0,1-.09,3c9.41-.68,19.77,2.11,24.6,10.12,2.57,4.26,3.21,9.39,3.66,14.35.08.91.15,1.82.22,2.74,3.43-2.81,7.53-4.71,11.57-6.56,1.45-.66,3.11-1.34,4.59-.74a3.08,3.08,0,0,1,1.46,1.22,13.66,13.66,0,0,1,2.16-2,5,5,0,0,1,2.6-.91,1.22,1.22,0,0,1,.07-.17,82.56,82.56,0,0,0,2.84-10.3,26.37,26.37,0,0,1-6.33-12.73,49.3,49.3,0,0,1-8.14-8.32c-7.47,2.43-15.59,4.1-22.29.36-5.84-3.26-9-10.18-9-16.87,0-2.56.41-5.13.07-7.66s-1.65-5.15-4-6.13c-1.43-.59-3.1-.52-4.41-1.34-1.69-1-2.26-3.22-2.56-5.19-.87-5.78-.62-11.72-2-17.39a28.78,28.78,0,0,0-2.5-6.48,25.14,25.14,0,0,1-.76,3.43c-.46,2.6.66,5.38-.2,7.88a6.13,6.13,0,0,1-1.48,2.33c-.34,2.52.65,5.18-.18,7.58C908.56,343.35,904.72,344.3,901.7,346Z"
     transform="translate(-79.34 -163.91)"
     fill="#f2f2f2"
     id="path78" />
  <path
     d="M740,712.13v24H225v-24a7,7,0,0,1,7-7H733A7,7,0,0,1,740,712.13Z"
     transform="translate(-79.34 -163.91)"
     fill="#3f3d56"
     id="path80" />
  <path
     d="M544.77,355.43c3.82,3.93,7.49,8.47,8.21,13.9-8.14,2.13-16.47-1.87-24.08-5.44a305.64,305.64,0,0,0-74-23.87c-2-.37-4.14-.78-5.65-2.16-2.85-2.61-2.33-9.19.32-11.9,2.86-2.92,8.15-2.5,12-2.71a109.55,109.55,0,0,1,83.24,32.18Z"
     transform="translate(-79.34 -163.91)"
     fill="#192534"
     id="path82" />
  <path
     d="M714.34,736.09H509.79a110.56,110.56,0,0,1-6.42-19.32c-.52-2.06-1-4.14-1.48-6.21-.42-1.82-.82-3.65-1.2-5.47q-1.74-8.21-3-16.49-1.21-7.8-2-15.65-.78-7.51-1.21-15.07c0-.14,0-.28,0-.43-.12-2.39,0-5,1.64-6.69,1.44-1.45,3.64-1.77,5.69-1.91,17-1.16,33.52,5,50.48,4.09,4.6-.27,8.3-1,12.58-.12a16.05,16.05,0,0,1,2,.51c1,.31,1.93.64,2.88,1,6.51,2.33,12.58,5.27,19.58,6.58,11.92,2.25,24.15,1.81,36.25,2.68,1,.06,2,.14,3,.24,1.23.1,2.46.23,3.68.38a137.92,137.92,0,0,1,30.34,7.6c5.28,1.91,10.48,4.07,15.61,6.36,1.47.66,2.93,1.32,4.39,2,2.6,1.21,5.24,2.49,7.82,3.88,1,.53,2,1.07,2.94,1.64,7.77,4.51,14.79,10.11,18.88,17.71.31.56.59,1.13.86,1.71s.47,1.07.69,1.62C717.36,716,716.11,726,714.34,736.09Z"
     transform="translate(-79.34 -163.91)"
     fill="#202f42"
     id="path84" />
  <path
     d="M714.34,736.09H509.79a110.56,110.56,0,0,1-6.42-19.32c-.52-2.06-1-4.14-1.48-6.21-.42-1.82-.82-3.65-1.2-5.47q-1.74-8.21-3-16.49-1.21-7.8-2-15.65-.78-7.51-1.21-15.07c0-.14,0-.28,0-.43-.12-2.39,0-5,1.64-6.69,1.44-1.45,3.64-1.77,5.69-1.91,17-1.16,33.52,5,50.48,4.09,4.6-.27,8.3-1,12.58-.12a16.05,16.05,0,0,1,2,.51c1,.31,1.93.64,2.88,1,6.51,2.33,12.58,5.27,19.58,6.58,11.92,2.25,24.15,1.81,36.25,2.68,1,.06,2,.14,3,.24,1.23.1,2.46.23,3.68.38a137.92,137.92,0,0,1,30.34,7.6c5.28,1.91,10.48,4.07,15.61,6.36,1.47.66,2.93,1.32,4.39,2,2.6,1.21,5.24,2.49,7.82,3.88,1,.53,2,1.07,2.94,1.64,7.77,4.51,14.79,10.11,18.88,17.71.31.56.59,1.13.86,1.71s.47,1.07.69,1.62C717.36,716,716.11,726,714.34,736.09Z"
     transform="translate(-79.34 -163.91)"
     opacity="0.1"
     id="path86" />
  <path
     d="M527.65,736.09H297.1c-5.18-5.7-8.57-13.13-7.73-20.7a65.79,65.79,0,0,1,1.58-9.34c.08-.33.17-.65.26-1a23.23,23.23,0,0,1,10.24-14c9.08-5.83,20-8.11,30-11.89,5.37-2,10.55-4.53,15.92-6.54a128.17,128.17,0,0,1,23.81-6.08c.9-.15,1.81-.3,2.71-.43s1.85-.29,2.78-.42c5-.72,10-1.31,15.05-1.89,11-1.29,22.17-2.57,33.24-1.59a113.64,113.64,0,0,1,25.94,5.82c6.32,2.11,12.56,4.56,18.76,7,9.67,3.82,19.42,7.73,28.05,13.46.75.5,1.48,1,2.21,1.53a66.39,66.39,0,0,1,14.92,15,70.9,70.9,0,0,1,6.31,10.48A72.72,72.72,0,0,1,527.65,736.09Z"
     transform="translate(-79.34 -163.91)"
     fill="#202f42"
     id="path88" />
  <path
     d="M461.91,332.93c-3.78,8.29-10.19,15.8-18.78,18.85-4.57,1.62-9.5,1.91-14.16,3.24s-9.36,4.08-11,8.63a20.19,20.19,0,0,0-.86,6.15c-.71,19.55-1.29,39.87,6.52,57.81,6.75,15.48,19.12,27.71,31.34,39.37,14.3,13.64,29.44,27.47,48.25,33.57,11,3.55,23.95,3.94,33.05-3.13,3.74-2.91,6.52-6.84,9.25-10.72,6-8.55,12.1-17.22,15.88-27,7.75-20,5.14-42.28,2.41-63.53a5.18,5.18,0,0,0-1.34-3.41c-1.06-.89-2.61-.77-4-.69-9.73.58-20.35-4.41-23.61-13.59-1.4-4-1.36-8.28-1.29-12.48l.38-24.22c0-2.61.07-5.31-.91-7.74-1.71-4.22-6-6.69-10.11-8.73a250.73,250.73,0,0,0-41.28-16.26c-6.22-1.83-10.95-4.88-13.72,1.8C465,317.8,465.13,325.86,461.91,332.93Z"
     transform="translate(-79.34 -163.91)"
     fill="#fbbebe"
     id="path90" />
  <path
     d="M461.91,332.93c-3.78,8.29-10.19,15.8-18.78,18.85-4.57,1.62-9.5,1.91-14.16,3.24s-9.36,4.08-11,8.63a20.19,20.19,0,0,0-.86,6.15c-.71,19.55-1.29,39.87,6.52,57.81,6.75,15.48,19.12,27.71,31.34,39.37,14.3,13.64,29.44,27.47,48.25,33.57,11,3.55,23.95,3.94,33.05-3.13,3.74-2.91,6.52-6.84,9.25-10.72,6-8.55,12.1-17.22,15.88-27,7.75-20,5.14-42.28,2.41-63.53a5.18,5.18,0,0,0-1.34-3.41c-1.06-.89-2.61-.77-4-.69-9.73.58-20.35-4.41-23.61-13.59-1.4-4-1.36-8.28-1.29-12.48l.38-24.22c0-2.61.07-5.31-.91-7.74-1.71-4.22-6-6.69-10.11-8.73a250.73,250.73,0,0,0-41.28-16.26c-6.22-1.83-10.95-4.88-13.72,1.8C465,317.8,465.13,325.86,461.91,332.93Z"
     transform="translate(-79.34 -163.91)"
     opacity="0.1"
     id="path92" />
  <circle
     cx="448.16"
     cy="114.69"
     r="74"
     fill="#fbbebe"
     id="circle94" />
  <path
     d="M534.53,394.62l-8.27,20.53c-1.87,4.64-3.77,9.33-6.65,13.42C511.66,439.84,496,445,482.94,440.66c-12.33-4.07-23.27-15.61-36-12.84-6.6,1.44-11.86,6.74-14.8,12.82s-3.88,12.92-4.51,19.65a249.46,249.46,0,0,0,8.75,92.56c.9,3.1,2,6.35,4.39,8.49,2.92,2.56,7.11,2.94,11,3.16q27,1.61,54.1,1.9c11.1.13,22.25.09,33.21-1.63s21.45-5,32.26-7.16c10.11-2,20.46-2.93,30.34-5.84,1.61-.47,3.31-1.07,4.3-2.41a7.18,7.18,0,0,0,1-4.25c0-5.76-1.79-11.36-3.73-16.78-5-13.83-10.84-27.44-13.62-41.87-3.83-19.85-1.58-40.3-2-60.52-.14-7.24-.64-14.6-3.13-21.41s-7.2-13.07-13.83-16C559.24,383.44,540,381.16,534.53,394.62Z"
     transform="translate(-79.34 -163.91)"
     fill="#ff7c3c"
     id="path96" />
  <path
     d="M496.5,491.77c-5.28-4.48-5-12.47-5.63-19.37-1.15-12.94-6.78-25-12.32-36.76L462,400.48c-6.92-14.66-14-31.35-8.29-46.54,1.91-5.12,5.18-9.68,6.86-14.88s1.34-11.7-2.92-15.13c-5.42-4.36-13.43-1.39-19.56,1.92a299.45,299.45,0,0,0-32.53,20.45c-2.82,2-5.78,4.37-6.7,7.73-.57,2.09-.27,4.38-1.07,6.4-1.56,4-6.42,5.2-10.57,6.14a129.07,129.07,0,0,0-82.3,60.4,71.69,71.69,0,0,0-7,15.63c-2,7-2.52,14.27-3,21.5Q293,492,291.22,519.87c-.53,8.23-1.05,16.66,1.2,24.59,1.45,5.1,4,9.87,5.08,15.07,2.19,10.81-2.43,21.85-8.2,31.25S276.43,609,272.81,619.37a67.18,67.18,0,0,0-3.24,20.42,117.2,117.2,0,0,0,18.62,66.1c12.29,1.81,21.49-10.41,32.78-15.6,16.55-7.59,37.45-1.51,53-10.89,3.8-2.29,7.09-5.41,11.11-7.3,3.65-1.71,7.7-2.32,11.69-2.9,14.74-2.13,29.67-4.1,44.48-2.5,21,2.27,42.71,11.6,62.46,4.07,4.87-1.86,9.33-4.67,14.22-6.48,18-6.67,38,1.3,57.17-.17-3-.16-4.34-3.56-4.9-6.55q-1.89-9.95-3.34-20c-.85-5.81-1.58-11.78-.25-17.49,1.22-5.3,4.14-10,6.59-14.86,7.73-15.3,11-32.46,17.63-48.28,3.15-7.54,7-14.74,10.74-22a453.7,453.7,0,0,0,35.07-93.56c-8.73-15.67-16.64-32-25.37-47.66-2.53-4.54-5.13-9.16-9-12.67-5.54-5.08-13.05-7.29-20.28-9.34-6.21-1.77-12.51-3.55-19-3.56s-24.75-6.79-29.13-2.06c-4.52,4.88,5.65,20.64,5.42,27.28s.5,13.36-.6,19.92c-1.6,9.57-7,18.1-9.45,27.48A135,135,0,0,0,527,454.21a152.7,152.7,0,0,1-7.89,29.57,20,20,0,0,1-2.89,5.62C511.48,495.2,503.86,493,496.5,491.77Z"
     transform="translate(-79.34 -163.91)"
     fill="#192534"
     id="path98" />
  <path
     d="M643.42,597.14c1.9,2.32,4.5,3.91,6.85,5.76,9.25,7.25,14.69,18.28,22.86,26.73,4.12,4.27,8.91,7.84,13.3,11.83,10.21,9.3,18.12,20.79,25.94,32.17,2,2.9,4,5.87,5,9.24,1.75,5.75.33,12.16-2.86,17.26s-8,9-13.19,12.06a63.9,63.9,0,0,1-8.45,4.2c-6,2.44-11.72-4.17-8.34-9.69A116.27,116.27,0,0,0,690.41,696a15.24,15.24,0,0,0,1.9-6.62c-.08-4.08-3.3-7.54-7-9.25s-7.87-2-11.92-2.5a133.18,133.18,0,0,1-63.24-25.16c-10.5-7.8-20.62-19.23-18.95-32.2,1.24-9.68,8.9-17.38,17.31-22.34a64.33,64.33,0,0,1,22.16-8c2.2-.36,7.72-1.87,9.69-.35C642.11,590.88,641.78,595.14,643.42,597.14Z"
     transform="translate(-79.34 -163.91)"
     fill="#fbbebe"
     id="path100" />
  <path
     d="M643.42,597.14c1.9,2.32,4.5,3.91,6.85,5.76,9.25,7.25,14.69,18.28,22.86,26.73,4.12,4.27,8.91,7.84,13.3,11.83,10.21,9.3,18.12,20.79,25.94,32.17,2,2.9,4,5.87,5,9.24,1.75,5.75.33,12.16-2.86,17.26s-8,9-13.19,12.06a63.9,63.9,0,0,1-8.45,4.2c-6,2.44-11.72-4.17-8.34-9.69A116.27,116.27,0,0,0,690.41,696a15.24,15.24,0,0,0,1.9-6.62c-.08-4.08-3.3-7.54-7-9.25s-7.87-2-11.92-2.5a133.18,133.18,0,0,1-63.24-25.16c-10.5-7.8-20.62-19.23-18.95-32.2,1.24-9.68,8.9-17.38,17.31-22.34a64.33,64.33,0,0,1,22.16-8c2.2-.36,7.72-1.87,9.69-.35C642.11,590.88,641.78,595.14,643.42,597.14Z"
     transform="translate(-79.34 -163.91)"
     opacity="0.1"
     id="path102" />
  <path
     d="M560.05,236.79c-10,10.24-26.06,10.67-40.38,10.42l.47-5.61L500,248.82a54.1,54.1,0,0,0,13.22-14.14c-2.61-2.29-6.7-2.22-9.8-.64s-5.38,4.37-7.33,7.25a66.1,66.1,0,0,0-7.32,58.81c-4,2.22-9.1,1.57-12.94-.85s-6.52-6.36-8.34-10.52c-1.19-2.72-2.43-5.94-5.27-6.79-2.38-.71-5,.74-6.32,2.85a12.19,12.19,0,0,0-1.37,7.2c.37,5.82,4.62,11.34,5.47,17.1s9.45,10.24,5,14c-1.28,1.09-14.41,4.06-16.07,3.8-2.25-.35-3.74-2.52-4.68-4.59-4.48-9.84-2.87-21.34-5.52-31.82-2.13-8.43-6.93-15.91-11.66-23.21a34,34,0,0,0-4.47-5.91c-1.57-1.54-3.51-2.87-4.27-4.93s.64-5,2.81-4.67a91,91,0,0,0-11.27-9.27q5.94-7.52,11.62-15.23c1.3-1.76,2.65-4,1.7-6a6.23,6.23,0,0,0-2.27-2.2l-10.34-7c-.23-4.75,9.44-3,10.93-7.49a6.3,6.3,0,0,0-.26-3.58l-3.52-12.84,13.37,6.06c1.62.74,3.35,1.49,5.12,1.23,3.53-.51,5.23-4.69,5.41-8.26s-.39-7.41,1.38-10.52q9.08-.36,18.15.13a11.92,11.92,0,0,0-2.25-8.58l44.68-2.48c7.63-.42,15.47-.81,22.72,1.59,2.46.82,4.94,2,7.52,1.71s5.18-2.67,4.44-5.15a81.1,81.1,0,0,1,18.19,14,18.52,18.52,0,0,0,5.17,4.27c2,.94,4.74.9,6.26-.76,1.22-1.33,1.83-3.65,3.63-3.73,1.12,0,2,.88,2.71,1.77a44.1,44.1,0,0,1,6.18,10.73,39.31,39.31,0,0,0,9.35-2.46c-3.12,2.63-3.2,7.53-1.71,11.33s4.19,7,6,10.64A43.43,43.43,0,0,1,597.64,222c.91,5.34.92,12.07-3.82,14.69-4.12,2.28-9.23-.15-13-3C570.44,225.91,568.46,228.19,560.05,236.79Z"
     transform="translate(-79.34 -163.91)"
     fill="#01e7c0"
     id="path104" />
  <path
     d="M612.34,709.25,681.63,703a10.8,10.8,0,0,0,9.82-11.33l-.05-1a10.79,10.79,0,0,0-7.68-9.78l-11.2-3.36a10.89,10.89,0,0,0-3.11-.46H644a11.17,11.17,0,0,0-2.07.2c-5.37,1.05-30.08,5.91-31,6.8-.49.5-3.43,2.7-6.27,4.8a10.79,10.79,0,0,0-4.09,11.16l.21.92A10.8,10.8,0,0,0,612.34,709.25Z"
     transform="translate(-79.34 -163.91)"
     fill="#464a5f"
     id="path106" />
  <path
     d="M578.5,687.59l28-8,52-7s33-9,36,19l-2.8,4.74s2.8-17.74-31.2-12.74c0,0-61.13-2.05-58.56,22C601.94,705.57,580.5,701.59,578.5,687.59Z"
     transform="translate(-79.34 -163.91)"
     fill="#ff7c3c"
     id="path108" />
  <ellipse
     cx="537.16"
     cy="505.69"
     rx="7"
     ry="1"
     fill="#ff7c3c"
     id="ellipse110" />
  <rect
     x="594.66"
     y="506.19"
     width="5"
     height="9"
     fill="#ff7c3c"
     id="rect112" />
  <rect
     x="534.66"
     y="506.19"
     width="5"
     height="9"
     fill="#ff7c3c"
     id="rect114" />
  <ellipse
     cx="675.5"
     cy="668.09"
     rx="2.5"
     ry="8"
     transform="translate(-269.38 895.96) rotate(-69.04)"
     fill="#ff7c3c"
     id="ellipse116" />
  <path
     d="M392.53,686.12c2.14,2.23,4.32,4.5,7.07,5.9a28,28,0,0,0,8.58,2.27q45.44,7,90.56,15.66c8.47,1.64,17,3.34,25,6.63,4.08,1.69,8,3.79,12,5.56,23,10.09,49,9.44,74.09,8.6,4.91-.16,10-.36,14.43-2.41,3.31-1.51,6.34-4.38,6.64-8,.52-6.29-6.63-10-12.34-12.71-13.63-6.43-25.51-16.89-32.69-30.15-1.28-2.34-2.32-5.49-.52-7.47,1.35-1.48,3.64-1.49,5.65-1.41q12.6.49,25.2-.26c4.35-.27,10.11-2.33,9.42-6.62-.3-1.84-1.82-3.21-3.26-4.41-7.57-6.36-16.16-12.91-26.05-12.72-5.19.1-10.14,2.08-15,3.75-26.18,8.88-54.37,9.37-82,9.19-6.76,0-13.57-.13-20.19-1.51a105.57,105.57,0,0,1-15.93-5.13c-16.76-6.39-33.59-12.82-49.11-21.79-6.17-3.56-13.05-7.68-19.93-5.85a20.75,20.75,0,0,0-8.2,5c-8.19,7.4-15.1,16.46-12.77,27.82C375.55,668,384.39,677.62,392.53,686.12Z"
     transform="translate(-79.34 -163.91)"
     fill="#fbbebe"
     id="path118" />
  <path
     d="M388.07,493c2.58,8.35,4.09,17.19,8.53,24.72,4.71,8,12.55,14.2,15.27,23.07,1.92,6.28,1,13,1,19.59,0,7.47,1.41,15.17,5.54,21.39,2.08,3.14,4.79,5.8,7.16,8.73,10.51,13,13.75,30.36,15.06,47-10-5.66-21.7-11.5-32.53-7.61-4.38,1.58-8.08,4.62-11.52,7.77a147.79,147.79,0,0,0-18.23,20c-2.86,3.77-5.67,8.38-4.43,12.94C368,662,362,653.34,357.4,643.88c-3.26-6.76-5.79-13.9-9.7-20.32-4.92-8.07-11.85-14.7-17.68-22.14C316.92,584.7,309.57,564,306,543.11s-3.72-42.29-3.61-63.53c0-7,.15-14.28,3.1-20.65,1.75-3.79,4.42-7.07,7.07-10.3,3.36-4.11,6.82-8.3,11.39-11,14.54-8.56,30.14,5.63,39.86,15.34A97.71,97.71,0,0,1,388.07,493Z"
     transform="translate(-79.34 -163.91)"
     fill="#192534"
     id="path120" />
  <path
     d="M638.73,445a13.67,13.67,0,0,1,3.2,4.37c.76,2,.56,4.2.4,6.33A131.35,131.35,0,0,0,645,493.56c1.63,7.51,3.69,16.2-1.1,22.21a18.47,18.47,0,0,0-2,2.55c-2.22,4.16,1.88,8.69,5,12.26,9.48,11,11,28.21,3.65,40.76-1.39,2.39-3.09,4.65-3.87,7.29a23.08,23.08,0,0,0-.62,6.64L646.1,602c-10.51-1.41-22.26-2.51-30.71,3.9-7.13,5.4-9.95,14.8-16,21.34-5.87,6.3-15,10.36-17.29,18.66l.12-34.57a79.83,79.83,0,0,0-.74-13.74c-1.2-7.15-4.31-13.84-6.13-20.86-2.38-9.18-2.53-18.77-2.67-28.26-.23-15.67-.45-31.51,2.8-46.84,1.33-6.24,3.22-12.35,4.68-18.56,2.65-11.2,4-22.86,8.65-33.38s13.78-20.06,25.24-21.19C626.12,427.29,631.24,437.17,638.73,445Z"
     transform="translate(-79.34 -163.91)"
     fill="#192534"
     id="path122" />
  <ellipse
     cx="677"
     cy="658.09"
     rx="7"
     ry="13"
     transform="translate(-317.69 262.76) rotate(-30)"
     fill="#fbbebe"
     id="ellipse124" />
  <ellipse
     cx="677"
     cy="658.09"
     rx="7"
     ry="13"
     transform="translate(-317.69 262.76) rotate(-30)"
     opacity="0.1"
     id="ellipse126" />
  <path
     style="fill:#2596be;stroke-width:0.316282;fill-opacity:1"
     d="m 367.93743,162.07223 c -1.3707,-0.87803 -2.70341,-3.07915 -3.85203,-6.36207 -1.34061,-3.83168 -1.83935,-6.77237 -2.74204,-16.16773 -0.85076,-8.85495 -1.31734,-11.66544 -2.58313,-15.55974 -1.85754,-5.71488 -4.34234,-10.50442 -10.16252,-19.58859 -2.12768,-3.3209 -3.87628,-5.604364 -5.88925,-7.69067 -1.57468,-1.632046 -3.03592,-3.278223 -3.2472,-3.658167 -0.97348,-1.750613 -0.10475,-4.530748 1.51711,-4.855117 0.52117,-0.104234 0.90644,-0.300466 0.85616,-0.436068 -0.16764,-0.452079 -5.11415,-4.746263 -8.07328,-7.008622 -2.90785,-2.223142 -2.9188,-2.236768 -2.37212,-2.950288 6.72256,-8.774214 11.40026,-15.074448 12.03367,-16.207738 1.13421,-2.029331 1.08937,-3.888471 -0.12464,-5.167744 -0.50737,-0.534644 -3.37764,-2.620978 -6.37837,-4.636298 -3.80826,-2.557671 -5.45587,-3.842609 -5.45587,-4.25494 0,-1.100657 1.58784,-2.117078 4.87058,-3.117792 3.93542,-1.199678 5.3805,-2.087577 5.88487,-3.615819 0.46504,-1.409073 0.37283,-1.911886 -1.76805,-9.641024 -0.93958,-3.392128 -1.70935,-6.261763 -1.71061,-6.376967 -10e-4,-0.115204 2.95099,1.139857 6.56057,2.789023 8.23621,3.763018 9.89502,4.338084 11.72283,4.063987 1.06049,-0.159031 1.70621,-0.525513 2.73028,-1.549575 1.95558,-1.955584 2.40502,-3.540688 2.69982,-9.521927 0.17832,-3.617849 0.40761,-5.450852 0.80431,-6.42971 l 0.55489,-1.369192 9.12805,0.104062 9.12805,0.104063 -2e-4,-1.603077 c -2.4e-4,-1.8270184 -0.73352,-4.5871059 -1.59236,-5.993617 l -0.58299,-0.9547645 24.88782,-1.35123 c 13.6883,-0.7431765 26.73807,-1.3445647 28.99949,-1.3364183 5.32437,0.01918 9.17199,0.6180736 14.17279,2.2060347 4.14708,1.3168673 6.35592,1.5779141 8.02546,0.948473 1.34708,-0.5078714 2.91573,-2.1849681 3.13453,-3.3512322 l 0.1949,-1.03894475 0.99444,0.51238085 c 3.7657,1.9402547 11.01165,7.5742062 15.96231,12.4111872 3.89186,3.802485 5.48854,4.954303 7.48943,5.402711 2.55574,0.572754 4.2491,-0.173141 5.89482,-2.596569 2.38173,-3.50725 3.45436,-3.159599 7.09625,2.299978 1.10971,1.66356 2.52356,4.119626 3.14189,5.457925 l 1.12424,2.433273 1.33367,-0.209049 c 0.73352,-0.114977 2.54345,-0.530436 4.02207,-0.923242 1.47862,-0.392807 2.71989,-0.683292 2.75838,-0.645524 0.0385,0.03777 -0.23029,0.675552 -0.59728,1.417297 -0.39299,0.794293 -0.73009,2.226982 -0.82014,3.485557 -0.24422,3.413225 0.89586,6.543058 4.43911,12.186604 4.04462,6.442106 6.28359,13.918398 6.35335,21.214862 0.0411,4.29438 -0.60066,6.367324 -2.58557,8.352229 -3.51861,3.518607 -8.08352,2.830484 -15.22073,-2.294397 -3.78892,-2.720639 -6.00711,-3.778989 -8.26224,-3.942112 -3.31284,-0.239628 -4.84134,0.699895 -11.20932,6.890056 -3.7932,3.687277 -5.18266,4.73006 -8.53963,6.408966 -7.04693,3.52435 -17.07354,5.095331 -30.1633,4.726015 l -2.01418,-0.05683 0.22395,-2.6884 c 0.12317,-1.47862 0.10442,-2.688296 -0.0417,-2.688169 -0.14608,1.26e-4 -4.23717,1.423397 -9.09132,3.162823 -4.85414,1.739427 -8.94695,3.162593 -9.09512,3.162593 -0.14818,0 0.85185,-0.988041 2.22228,-2.195641 3.41889,-3.012691 9.21477,-9.984216 9.21477,-11.08392 0,-0.793496 -2.93253,-1.734875 -5.3768,-1.726019 -3.305,0.01199 -5.36522,1.001302 -8.35614,4.012649 -2.83139,2.850722 -4.97091,6.078602 -7.80065,11.7688 -7.53681,15.155448 -8.96289,32.749035 -3.96702,48.941285 l 0.75059,2.43276 -1.28712,0.51501 c -4.31224,1.72542 -9.79395,0.30913 -13.92186,-3.59693 -2.29588,-2.17249 -3.97517,-4.72269 -6.32812,-9.60997 -1.46201,-3.03674 -2.02778,-3.88799 -3.10065,-4.66517 -2.8616,-2.07293 -6.76355,-0.79055 -8.43299,2.7715 -0.77879,1.66168 -0.84807,2.12922 -0.83103,5.60819 0.0202,4.13312 0.0303,4.1699 3.23056,11.86059 0.68768,1.65258 1.4887,4.05281 1.78006,5.33385 0.66064,2.90474 1.27164,4.10777 3.8447,7.57001 1.12492,1.51366 2.19692,3.25026 2.38221,3.85911 0.4095,1.34553 0.0116,2.60028 -1.0419,3.28552 -1.59275,1.036 -12.62974,3.67903 -15.31447,3.66736 -0.68469,-0.003 -1.66928,-0.28967 -2.23135,-0.64972 z"
     id="path1358" />
  <path
     style="fill:#18bca4;fill-opacity:1;stroke-width:0.316282"
     d="m 521.23335,531.58156 c -5.38609,-4.94347 -10.4624,-10.77143 -9.7275,-11.16783 1.21175,-0.65363 16.65043,-4.72308 19.05783,-5.02341 4.782,-0.59659 4.26981,-0.0291 4.26981,-4.73066 v -4.07784 l -1.3442,-0.20287 c -3.0967,-0.46737 -3.25164,-0.5224 -2.58335,-0.91744 0.82957,-0.49038 11.76976,-0.49038 12.59933,0 0.66829,0.39504 0.51335,0.45007 -2.58335,0.91744 l -1.3442,0.20287 v 3.76758 c 0,2.07218 0.0925,3.76759 0.20561,3.76759 0.76474,0 38.38296,-5.15427 40.27854,-5.51877 4.41949,-0.84984 7.42142,-1.14676 11.06988,-1.09495 3.46068,0.0491 3.64206,0.0197 3.73639,-0.60615 0.0791,-0.52473 -0.28607,-0.85227 -1.80493,-1.61899 -2.33391,-1.17815 -4.14544,-2.72369 -4.14544,-3.53674 0,-0.84139 1.42173,-1.31798 3.16283,-1.06025 1.16056,0.1718 1.77354,0.54448 3.32096,2.01913 2.22173,2.11724 4.34862,3.22968 6.42174,3.3588 1.05319,0.0656 1.51502,0.23875 1.5874,0.59519 0.13715,0.67532 -1.39319,1.23228 -2.70812,0.9856 -0.86812,-0.16287 -1.03121,-0.0991 -1.03121,0.40337 0,0.4282 0.3798,0.71049 1.3442,0.99909 6.99601,2.09358 12.24754,8.33656 13.58796,16.15328 l 0.38584,2.25005 -1.09392,2.02703 -1.09392,2.02704 -0.56021,-2.28665 c -1.27862,-5.21906 -5.47816,-8.5618 -12.41181,-9.87951 -3.53465,-0.67175 -8.2602,-0.85942 -12.01873,-0.47732 -1.9135,0.19454 -7.46426,0.4789 -12.33501,0.63191 -10.11269,0.31767 -15.50882,0.71843 -21.82348,1.62078 -10.81665,1.54567 -19.52245,4.31848 -24.61447,7.83974 -1.27056,0.87863 -3.35682,2.89084 -4.54697,4.3856 l -0.5691,0.71476 z"
     id="path1588" />
  <path
     style="fill:#ffffff;fill-opacity:1;stroke-width:0.830832"
     d="m 960.22232,447.40309 c 0.46786,-12.35712 -0.4477,-22.08076 -2.99141,-31.76955 -1.08224,-4.12212 -1.28081,-6.30251 -0.7061,-7.75345 0.43974,-1.11023 1.03364,-9.46359 1.31978,-18.56301 l 0.52025,-16.54441 7.29861,6.36671 c 6.23163,5.43599 7.74136,6.36672 10.32733,6.36672 2.51215,0 3.61247,-0.62683 6.45116,-3.67511 1.88234,-2.02132 4.525,-5.66659 5.87261,-8.10061 2.37826,-4.29563 2.44552,-4.72939 2.29166,-14.78011 -0.19385,-12.66357 -2.53295,-57.44258 -3.54427,-67.85024 -0.40532,-4.17126 -1.19949,-9.12793 -1.76481,-11.01482 -1.27725,-4.26306 -5.78247,-9.62998 -9.78179,-11.65273 -3.33516,-1.68683 -10.49696,-3.39704 -14.22569,-3.39704 -1.82479,0 -2.45693,-0.43062 -2.65931,-1.81158 -0.19962,-1.36209 -2.53305,-3.00758 -9.40465,-6.63196 -5.02653,-2.65122 -9.90891,-4.827 -10.84973,-4.83508 -0.94082,-0.008 -2.43631,-0.56361 -3.32333,-1.23452 -0.88701,-0.67089 -2.42427,-1.23171 -3.41611,-1.24625 -1.31574,-0.0193 -1.95027,-0.69532 -2.3467,-2.50024 -0.76193,-3.46902 0.1269,-5.70244 3.91706,-9.84271 3.72298,-4.06688 6.1254,-8.95061 6.95495,-14.13828 0.48293,-3.02011 1.02594,-3.77125 3.71976,-5.14554 3.98338,-2.03216 4.33071,-2.62011 5.1365,-8.695 2.30862,-17.40475 2.32341,-18.11744 0.43129,-20.77081 -4.33643,-6.08107 -13.73142,-16.45495 -16.39066,-18.09846 -3.28618,-2.03097 -7.22991,-2.20693 -23.15529,-1.03315 -10.76332,0.79331 -10.95733,0.88684 -22.97402,11.0755 -8.43079,7.14826 -10.38945,9.99245 -10.41114,15.11819 -0.0249,5.8716 -0.914,6.54218 -4.69012,3.53725 -6.10526,-4.85843 -7.02567,-6.31757 -7.76977,-12.31762 -0.6949,-5.60321 -0.70835,-5.62593 -6.5759,-11.10013 -3.23375,-3.01699 -5.93363,-5.66662 -5.99969,-5.88807 -0.0661,-0.22146 -0.36134,-8.06707 -0.65614,-17.4347 -0.74498,-23.67259 -1.64125,-25.14201 -15.24807,-24.99918 -4.81229,0.0505 -10.75239,-0.53907 -15.60506,-1.54889 -8.2865,-1.72438 -11.29503,-1.52314 -16.34333,1.09317 -1.48081,0.76744 -3.29972,2.32225 -4.04201,3.45514 -1.24847,1.9054 -1.84264,2.05979 -7.92742,2.05979 -3.92502,0 -7.76349,0.49541 -9.51787,1.22844 -3.93745,1.64518 -20.02792,14.95202 -22.00977,18.20213 -0.86746,1.42256 -1.58421,4.08197 -1.59281,5.90981 -0.009,1.82783 -0.52428,4.78465 -1.146,6.57071 -1.93284,5.55269 0.0398,10.0785 8.18118,18.76966 2.35428,2.51327 4.78495,6.06508 5.40149,7.89291 0.61655,1.82783 1.99371,4.64332 3.06037,6.25666 1.91133,2.8909 1.91985,3.00198 0.58861,7.68158 -1.4542,5.11189 -4.31979,7.55958 -7.78834,6.65254 -2.45534,-0.64209 -13.6064,5.0831 -17.51678,8.99349 -2.7321,2.73209 -3.78125,3.23643 -6.76464,3.25184 -6.8938,0.0357 -14.45353,5.30956 -18.1671,12.67402 -0.97318,1.92993 -1.90152,3.65588 -2.063,3.83544 -0.16147,0.17956 -2.72095,-1.80465 -5.68776,-4.40935 -3.83779,-3.36941 -5.64003,-5.62107 -6.24631,-7.80396 -0.46867,-1.68748 -0.85631,-9.23707 -0.86141,-16.77687 -0.0105,-15.56523 -0.66498,-18.9536 -4.24221,-21.96365 -2.36884,-1.99326 -3.10314,-2.13132 -11.39964,-2.14346 -4.87723,-0.007 -11.11094,-0.55463 -13.85269,-1.21666 -2.74174,-0.66202 -6.82978,-1.21699 -9.08455,-1.23327 -4.87593,-0.0352 -11.01517,2.65443 -12.25125,5.36733 -0.69514,1.52567 -1.75385,1.95596 -5.87152,2.38635 -2.76291,0.28878 -6.56814,0.52505 -8.45607,0.52505 -3.86098,0 -5.18331,0.80352 -15.72363,9.55457 -8.43064,6.99949 -10.66847,10.06039 -11.46149,15.67691 -0.33106,2.34469 -0.85441,5.9731 -1.163,8.06315 -0.72638,4.91962 1.41833,9.27718 7.93552,16.12311 2.61887,2.75097 5.20748,6.3854 5.75248,8.07652 0.54499,1.69111 1.9292,4.45742 3.07602,6.14736 1.49409,2.20166 1.93761,3.68513 1.56469,5.23356 -1.62811,6.76023 -2.26334,8.39221 -3.26658,8.39221 -0.61188,0 -1.56404,0.54407 -2.11591,1.20904 -0.79151,0.9537 -1.33035,1.00487 -2.55152,0.24224 -1.26435,-0.78961 -2.49935,-0.5163 -6.73805,1.49116 -2.85447,1.35188 -6.47679,3.32272 -8.04959,4.37965 l -2.85964,1.92168 0.57274,-4.31749 c 1.0825,-8.16033 0.59264,-21.12016 -1.08967,-28.82819 -2.32919,-10.67202 -12.21145,-42.78573 -14.64281,-47.58379 -4.38045,-8.64439 -11.81896,-14.06476 -19.32493,-14.08189 -2.99805,-0.007 -3.94516,-0.45086 -6.03233,-2.82803 -3.18232,-3.62446 -15.22459,-9.97441 -17.69116,-9.32863 -3.23293,0.84642 -6.23838,-1.22046 -7.60445,-5.22965 -0.69126,-2.02874 -1.25684,-4.22415 -1.25684,-4.8787 0,-2.77578 6.51876,-14.26448 10.69759,-18.85349 2.48876,-2.73305 5.45838,-7.00789 6.59914,-9.49966 1.87562,-4.09689 1.97744,-4.85379 1.06391,-7.90872 -0.55562,-1.85803 -0.97381,-4.77064 -0.9293,-6.47247 0.0445,-1.70182 -0.46448,-4.13201 -1.13108,-5.40041 -2.58334,-4.9155 -20.8381,-20.089797 -24.42579,-20.303965 -2.73836,-0.163468 -6.10323,-0.334166 -10.66303,-0.540931 -3.27246,-0.148391 -3.48128,-0.323216 -4.899,-4.10145 -0.81446,-2.170549 -2.57217,-6.134063 -3.90602,-8.80781 -1.33385,-2.673745 -2.30723,-4.953492 -2.16307,-5.066102 0.14416,-0.11261 3.06617,-0.651974 6.49335,-1.198585 13.48019,-2.149995 39.97762,-8.288956 88.60563,-20.528275 49.69103,-12.506871 69.4625,-17.166812 91.26952,-21.511335 78.10475,-15.560483 150.88224,-17.432933 222.13657,-5.715222 37.61657,6.186013 63.51754,18.454698 83.84124,39.713625 18.8634,19.731479 29.7651,44.4761 34.7992,78.98716 1.7837,12.22803 2.0309,48.3151 0.4269,62.31241 -3.9065,34.09002 -9.7875,62.55888 -20.5097,99.28444 -12.5017,42.82047 -33.32411,96.94929 -55.93122,145.39562 l -3.29546,7.06207 z"
     id="path3178" />
  <path
     style="fill:#ffffff;fill-opacity:1;stroke-width:0.830832"
     d="m 868.69496,249.78577 c -1.42602,-13.22882 -10.50186,-21.30694 -23.93853,-21.30694 -2.4672,0 -3.85322,-0.32228 -3.54322,-0.82387 0.28005,-0.45312 -0.40396,-1.737 -1.52001,-2.85306 -2.33418,-2.33417 -16.4113,-9.61368 -18.60676,-9.62186 -0.80881,-0.003 -2.59218,-0.74829 -3.96306,-1.65619 -1.37087,-0.90789 -3.12158,-1.65318 -3.89046,-1.65619 -0.76888,-0.003 -1.63796,-0.76162 -1.93129,-1.6858 -0.90857,-2.86268 0.38311,-6.31734 3.64352,-9.74474 3.74437,-3.93615 6.60336,-9.7216 7.29395,-14.76003 0.35488,-2.58912 0.96687,-3.8294 2.06088,-4.17662 0.85586,-0.27164 2.67571,-1.43598 4.04412,-2.58742 2.19278,-1.8451 2.48801,-2.62118 2.48801,-6.54021 0,-2.44568 0.37388,-4.67775 0.83084,-4.96017 0.45695,-0.28241 0.83083,-2.73466 0.83083,-5.44944 0,-2.71478 0.34488,-4.93596 0.7664,-4.93596 1.2937,0 2.45934,4.97635 3.40568,14.53956 0.49741,5.02654 1.40708,9.90995 2.02151,10.85203 0.61442,0.94209 2.58857,2.15374 4.38699,2.69256 4.09633,1.22729 5.20523,3.49316 5.20523,10.63614 0,8.43435 1.37436,12.50311 5.74256,17.00073 5.10826,5.25959 10.16143,6.43707 19.4188,4.5249 l 6.30175,-1.30166 3.98827,4.26379 c 2.19355,2.34508 4.59983,5.87487 5.34729,7.84397 0.74745,1.9691 2.17615,4.72775 3.17488,6.13033 1.78828,2.51141 1.79456,2.6261 0.41331,7.54883 -0.77141,2.74928 -1.83933,4.99869 -2.37316,4.99869 -0.53383,0 -1.42782,0.45723 -1.98666,1.01606 -0.55884,0.55884 -2.32217,0.90354 -3.91852,0.76601 -2.12316,-0.18293 -4.5457,0.63629 -9.02262,3.0511 l -6.12015,3.30117 z"
     id="path3217" />
  <path
     style="fill:#ffffff;fill-opacity:1;stroke-width:0.830832"
     d="m 700.39147,287.1128 c 0,-0.65227 -0.94139,-1.92644 -2.09197,-2.83149 -3.15271,-2.47992 -16.6468,-9.27588 -18.41823,-9.27588 -0.8539,0 -2.34906,-0.55791 -3.32258,-1.23979 -0.97353,-0.68188 -2.64568,-1.37163 -3.7159,-1.53277 -1.68528,-0.25375 -1.98045,-0.82762 -2.20418,-4.28531 -0.23867,-3.68853 -0.005,-4.25153 3.06798,-7.39867 3.84741,-3.93998 7.55588,-11.37237 7.56763,-15.16676 0.007,-2.21241 0.57348,-2.95259 3.63291,-4.74553 3.95448,-2.31748 6.00874,-5.92072 5.20384,-9.1277 -0.2825,-1.12555 0.0718,-3.13077 0.817,-4.62466 0.76358,-1.53063 1.10109,-3.49283 0.80422,-4.67561 -0.28134,-1.12097 -0.2569,-3.05264 0.0543,-4.2926 0.56055,-2.23341 0.57653,-2.2237 1.70959,1.03854 0.62907,1.81116 1.5346,7.2187 2.01228,12.01676 1.07259,10.77341 1.81707,12.4278 6.25339,13.89643 4.28134,1.41732 5.06022,3.22878 5.47956,12.74406 0.25713,5.83433 0.72071,7.84432 2.57393,11.16009 l 2.26031,4.04414 -1.87998,7.74135 -1.87999,7.74134 h -3.96206 c -2.8784,0 -3.96206,-0.32436 -3.96206,-1.18594 z"
     id="path3256" />
  <path
     style="fill:#ffffff;fill-opacity:1;stroke-width:0.830832"
     d="m 734.90367,370.05595 c -0.36231,-0.87005 -0.84094,-6.44228 -1.06363,-12.38273 -0.42138,-11.24056 1.20093,-28.81909 3.63263,-39.3614 0.87181,-3.77959 1.15023,-9.03014 0.97177,-18.32619 -0.24925,-12.98403 -0.24267,-13.03775 1.9107,-15.59763 l 2.16081,-2.56872 0.53603,10.50951 c 0.29481,5.78023 0.53024,19.10863 0.52317,29.61865 -0.0173,25.69227 -2.31843,42.65822 -6.48354,47.80192 -1.46214,1.80567 -1.5581,1.81912 -2.18794,0.30659 z"
     id="path3295" />
  <path
     style="fill:#ffffff;fill-opacity:1;stroke-width:0.830832"
     d="m 852.89812,406.97026 c -0.32835,-1.06678 -0.79884,-6.79997 -1.04555,-12.74042 -0.46661,-11.23596 0.90155,-25.80068 3.6418,-38.7686 1.21246,-5.73781 1.55833,-6.4071 3.50418,-6.781 1.18741,-0.22817 2.29374,-0.2819 2.4585,-0.11941 0.49393,0.48711 0.21158,27.86231 -0.33821,32.79111 -1.12119,10.05136 -3.04653,19.51699 -4.54623,22.35084 -2.73865,5.17499 -3.01244,5.41845 -3.67449,3.26748 z"
     id="path3334" />
  <path
     style="fill:#ffffff;fill-opacity:1;stroke-width:0.830832"
     d="m 824.73887,563.51188 c -1.05255,-1.7467 -2.3533,-23.14854 -1.85574,-30.53308 0.73895,-10.96692 2.18304,-17.68075 6.69906,-31.14526 4.5012,-13.42027 5.62812,-19.1495 7.56128,-38.44119 0.81302,-8.11335 1.6884,-14.42614 1.94529,-14.02842 0.2569,0.39771 1.2656,0.97208 2.24156,1.27638 1.59781,0.49818 1.69607,0.86207 0.98709,3.65526 -0.61979,2.44179 -0.3083,5.30977 1.46353,13.47516 2.13738,9.84998 2.28197,11.96548 2.8668,41.94477 0.65185,33.41484 0.94706,36.14274 5.23739,48.39597 l 2.10907,6.02353 h -14.43992 c -7.94196,0 -14.60889,-0.2804 -14.81541,-0.62312 z"
     id="path3373" />
  <path
     style="fill:#ffffff;fill-opacity:1;stroke-width:0.830832"
     d="m 778.49955,558.52689 c 0.005,-3.54142 0.61847,-8.49526 1.36233,-11.00853 0.74386,-2.51326 1.60777,-9.05607 1.91979,-14.53956 l 0.56732,-9.96998 0.14743,12.12552 c 0.0811,6.66904 0.39118,16.10937 0.68911,20.97851 l 0.54167,8.85299 h -2.61875 -2.61876 z"
     id="path3449" />
  <path
     style="fill:#ffffff;fill-opacity:1;stroke-width:0.830832"
     d="m 689.99657,557.69606 c 3.33745,-9.8984 3.80944,-12.78413 7.64379,-46.73431 2.53424,-22.43877 3.0595,-30.02083 3.10807,-44.86493 0.0522,-15.94331 -0.14352,-18.65577 -1.82109,-25.24111 -1.59792,-6.27271 -1.75317,-8.07778 -1.03614,-12.04707 0.46388,-2.56787 1.12274,-10.88917 1.46413,-18.4918 l 0.62073,-13.82295 7.40539,6.2321 c 7.17719,6.04004 7.51311,6.21733 10.90072,5.75301 4.14467,-0.56809 4.68763,-0.20143 3.66903,2.47771 -0.65436,1.7211 -0.47094,2.12888 1.25231,2.78406 1.817,0.69082 1.942,1.03597 1.24957,3.45034 -0.87981,3.06775 -0.45626,6.66797 1.89269,16.08784 1.44209,5.78313 1.74081,10.85635 2.29927,39.04911 0.70806,35.74495 0.78892,36.36741 7.01497,54.00408 3.70306,10.48976 3.73592,14.23507 0.24953,28.44648 l -2.7002,11.00673 -22.97203,0.006 -22.97202,0.005 z"
     id="path3488" />
  <path
     style="fill:#ffffff;fill-opacity:1;stroke-width:0.830832"
     d="m 593.47871,428.126 c -1.72544,-10.11474 -0.51495,-31.85793 2.69652,-48.43572 1.28786,-6.64801 4.50746,-26.47433 4.51304,-27.79134 0.002,-0.43411 0.41889,-0.37374 0.92679,0.13415 0.63322,0.63322 0.94286,8.71454 0.98525,25.71425 0.0771,30.90956 -1.9309,46.08658 -6.94013,52.45574 l -1.50148,1.90912 z"
     id="path3527" />
  <path
     style="fill:#ffffff;fill-opacity:1;stroke-width:0.830832"
     d="m 742.77663,340.57193 c 0.007,-2.93214 0.36691,-5.89146 0.79981,-6.57626 0.51261,-0.81089 0.61296,0.92751 0.28778,4.985 -0.62778,7.83305 -1.10415,8.53003 -1.08759,1.59126 z"
     id="path3640" />
  <path
     style="fill:#ffffff;fill-opacity:1;stroke-width:0.830832"
     d="m 575.48442,314.68684 c -0.25684,-1.0332 -0.90099,-6.92585 -1.43146,-13.09478 -0.95851,-11.14676 -0.43489,-46.61793 0.80947,-54.83492 l 0.56618,-3.73875 1.88289,2.90792 c 1.79818,2.77708 1.85905,3.41251 1.35305,14.12414 -0.44307,9.37934 -0.26203,12.50886 1.10544,19.10914 3.16926,15.29684 3.1424,16.67939 -0.53683,27.63435 -2.40315,7.15537 -3.40678,9.26851 -3.74874,7.8929 z"
     id="path3827" />
  <path
     style="fill:#ffffff;fill-opacity:1;stroke-width:0.830832"
     d="M 91.806949,567.39251 C 73.313695,561.14988 60.111728,551.05144 45.542285,532.00379 0.02814818,472.49996 -11.576803,385.70371 13.017517,288.74313 26.740816,234.64043 52.492794,179.90743 84.176412,137.50271 99.568931,116.90167 122.04884,93.121687 138.74896,79.774069 162.50434,60.787525 188.00837,47.615368 212.71298,41.57361 c 30.33098,-7.417744 58.70989,-4.84254 87.95812,7.981634 5.76154,2.526204 16.08364,6.828311 22.93801,9.560238 6.85436,2.731928 13.32339,5.317549 14.37561,5.745826 1.88391,0.766789 1.84233,0.870667 -2.72186,6.80009 -2.54925,3.311772 -4.6332,6.311354 -4.63099,6.665736 0.002,0.354384 2.26234,2.52373 5.02251,4.820772 4.48892,3.735713 4.88532,4.309625 3.7564,5.438546 -0.69416,0.694159 -1.26211,1.627842 -1.26211,2.074852 0,1.492111 2.39354,5.276255 4.66601,7.376885 2.63952,2.439921 8.36144,11.168151 11.84356,18.066211 3.48213,6.89805 4.86369,12.35396 6.29788,24.87102 0.69007,6.0226 1.78683,12.49482 2.43726,14.3827 1.1626,3.37447 1.1472,3.44598 -0.91112,4.22854 -7.36697,2.80092 -37.7363,22.35801 -41.30541,26.59966 -1.12404,1.33585 -2.12565,3.93833 -2.44645,6.35666 -0.77705,5.85771 -2.83563,7.42449 -13.56601,10.32509 -24.81118,6.7069 -44.69318,18.34393 -61.76429,36.15096 -13.52659,14.10972 -23.43246,30.60456 -26.15667,43.55502 -0.70898,3.37038 -1.52085,10.17913 -1.80415,15.13056 l -0.51509,9.0026 -1.53235,-6.03398 c -2.86126,-11.2669 -10.78517,-36.03468 -12.86346,-40.20736 -4.17323,-8.37878 -11.12809,-13.45643 -19.11297,-13.95414 -2.72643,-0.16993 -4.22782,-0.93652 -7.20006,-3.67624 -5.07714,-4.67994 -13.34768,-8.80532 -16.67408,-8.31711 -3.94828,0.57948 -6.89895,-2.0793 -8.05868,-7.2615 -0.91141,-4.07265 -0.83764,-4.4918 1.54847,-8.79701 1.37802,-2.48633 2.77104,-5.41144 3.09559,-6.50025 0.32456,-1.0888 2.57925,-4.00084 5.01043,-6.47117 4.759,-4.83565 8.70907,-11.75993 8.66156,-15.18331 -0.0162,-1.16692 -0.54027,-3.04433 -1.16463,-4.17204 -0.63991,-1.15578 -0.94756,-3.20668 -0.70513,-4.70059 0.69944,-4.3102 -2.49409,-8.74095 -11.86376,-16.45989 -4.64222,-3.82435 -9.52009,-7.4993 -10.83973,-8.16657 -2.30269,-1.16432 -16.21466,-2.53448 -26.14104,-2.57458 -6.23028,-0.0252 -8.9004,1.67847 -16.8249,10.73491 -9.480332,10.8345 -9.402965,10.67518 -8.699583,17.9129 1.502112,15.45662 1.781604,16.55625 4.857236,19.11055 1.577036,1.30971 3.521615,2.94516 4.321287,3.63433 0.79968,0.68917 1.45762,2.28119 1.46208,3.53782 0.0119,3.34326 3.37476,10.01633 7.37961,14.64357 3.05519,3.52999 3.46707,4.47152 3.24826,7.42519 -0.22297,3.00976 -0.53668,3.45623 -2.84631,4.05076 -1.42764,0.3675 -3.04394,1.20826 -3.59178,1.86836 -0.54783,0.6601 -1.52118,0.99868 -2.16301,0.75239 -1.02852,-0.39468 -17.388061,7.63365 -20.105489,9.86662 -0.571197,0.46937 -1.03854,1.55536 -1.03854,2.41332 0,1.33565 -0.652544,1.55994 -4.538409,1.55994 -8.673323,0 -17.027511,4.88013 -20.623094,12.04707 -2.047877,4.08195 -2.997811,13.29573 -4.748294,46.05555 -1.867708,34.95366 -1.967033,43.32089 -0.560075,47.18119 1.595968,4.37889 7.984554,12.47994 10.952502,13.88832 3.691897,1.75192 5.182667,1.07963 13.377927,-6.03305 l 6.738457,-5.84832 0.579505,15.52139 c 0.318724,8.53677 0.930873,16.86685 1.360321,18.51128 0.593015,2.27073 0.387476,4.52786 -0.85451,9.38397 -2.256225,8.82177 -3.558674,22.80065 -2.911161,31.24483 0.908373,11.846 7.008858,68.19499 8.000481,73.89884 0.512058,2.94535 2.758994,10.79671 4.993193,17.44747 2.234207,6.65076 4.613278,15.22573 5.286826,19.05549 1.55484,8.84067 1.67743,25.86213 0.1861,25.83756 -0.571199,-0.009 -4.403413,-1.15295 -8.516031,-2.54121 z"
     id="path3866" />
  <path
     style="fill:#ffffff;fill-opacity:1;stroke-width:0.830832"
     d="m 187.56119,392.98359 c -5.13064,-7.78157 -6.84584,-20.46806 -6.79582,-50.26534 0.0215,-12.79482 0.3329,-26.55909 0.69205,-30.58729 l 0.65301,-7.32398 2.07574,2.75441 c 2.04684,2.71606 2.06834,2.91055 1.54401,13.97064 -0.44077,9.29771 -0.25381,12.63736 1.09301,19.52455 0.89361,4.56958 2.104,11.86013 2.68976,16.20123 1.18461,8.77919 1.27494,30.38613 0.14589,34.89495 l -0.72817,2.90791 z"
     id="path3905" />
  <path
     style="fill:#ffffff;fill-opacity:1;stroke-width:0.830832"
     d="m 463.67192,189.09576 c -0.89669,-1.08044 -0.88859,-1.36352 0.0465,-1.62687 17.0762,-4.809 26.02634,-9.61401 35.90475,-19.27595 5.41241,-5.2938 6.31839,-5.13819 6.34082,1.0891 0.0101,2.81179 -0.28343,3.53215 -1.44123,3.53651 -0.79968,0.003 -2.57558,0.7483 -3.94645,1.65619 -1.37087,0.9079 -3.29482,1.65318 -4.27543,1.65619 -0.98061,0.003 -5.75593,2.1237 -10.61181,4.71264 -6.50903,3.47032 -8.95679,5.21677 -9.31566,6.64665 -0.40225,1.60267 -1.03026,1.9395 -3.61619,1.9395 -1.72118,0 -4.22524,0.21917 -5.56459,0.48704 -1.67011,0.33402 -2.77623,0.0761 -3.52075,-0.821 z"
     id="path3944" />
</svg>
