<?xml version="1.0" encoding="UTF-8" standalone="no"?>
<!-- Generator: Adobe Illustrator 16.0.0, SVG Export Plug-In . SVG Version: 6.00 Build 0)  -->

<svg
   version="1.1"
   id="Capa_1"
   x="0px"
   y="0px"
   width="589.004px"
   height="589.004px"
   viewBox="0 0 589.004 589.004"
   style="enable-background:new 0 0 589.004 589.004;"
   xml:space="preserve"
   sodipodi:docname="recycle-bin-svgrepo-com.svg"
   inkscape:version="1.1.2 (b8e25be833, 2022-02-05)"
   xmlns:inkscape="http://www.inkscape.org/namespaces/inkscape"
   xmlns:sodipodi="http://sodipodi.sourceforge.net/DTD/sodipodi-0.dtd"
   xmlns="http://www.w3.org/2000/svg"
   xmlns:svg="http://www.w3.org/2000/svg"><defs
   id="defs67" /><sodipodi:namedview
   id="namedview65"
   pagecolor="#ffffff"
   bordercolor="#666666"
   borderopacity="1.0"
   inkscape:pageshadow="2"
   inkscape:pageopacity="0.0"
   inkscape:pagecheckerboard="0"
   showgrid="false"
   inkscape:zoom="0.98442037"
   inkscape:cx="386.52187"
   inkscape:cy="228.05298"
   inkscape:window-width="2400"
   inkscape:window-height="1284"
   inkscape:window-x="-2409"
   inkscape:window-y="-9"
   inkscape:window-maximized="1"
   inkscape:current-layer="Capa_1" />
<g
   id="g32">
	<g
   id="g6">
		<path
   d="M451.716,146.986H137.289c-16.287,0-31.952,6.876-42.977,18.865c-11.025,11.988-16.566,28.173-15.205,44.403    l27.241,324.744c1.227,14.629,7.854,28.158,18.66,38.096c10.805,9.938,24.842,15.41,39.521,15.41h259.947    c14.68,0,28.715-5.473,39.521-15.41s17.434-23.467,18.66-38.097l27.24-324.744c1.361-16.229-4.18-32.414-15.205-44.402    C483.669,153.862,468.003,146.986,451.716,146.986z M467.208,206.672l-27.24,324.745c-0.676,8.055-7.41,14.247-15.492,14.247    H164.53c-8.083,0-14.817-6.192-15.492-14.247l-27.241-324.745c-0.761-9.067,6.393-16.846,15.492-16.846h314.427    C460.815,189.826,467.968,197.605,467.208,206.672z"
   id="path2" />
		<path
   d="M424.476,589.004H164.529c-14.807,0-28.962-5.52-39.86-15.542c-10.899-10.022-17.583-23.668-18.82-38.422L78.608,210.296    c-1.373-16.37,4.216-32.693,15.335-44.784c11.119-12.092,26.918-19.027,43.345-19.027h314.427    c16.429,0,32.227,6.935,43.345,19.027c11.119,12.09,16.708,28.413,15.335,44.782l-27.24,324.744    c-1.237,14.755-7.921,28.4-18.819,38.423C453.437,583.484,439.28,589.004,424.476,589.004z M137.289,147.486    c-16.148,0-31.679,6.817-42.609,18.704c-10.93,11.885-16.425,27.931-15.075,44.023l27.241,324.744    c1.216,14.504,7.787,27.917,18.5,37.77c10.712,9.853,24.628,15.278,39.183,15.278h259.947c14.554,0,28.469-5.426,39.183-15.278    c10.715-9.853,17.285-23.266,18.501-37.771l27.24-324.744c1.35-16.091-4.145-32.137-15.075-44.021    c-10.929-11.886-26.459-18.704-42.608-18.704H137.289z M424.476,546.164H164.53c-8.275,0-15.299-6.459-15.99-14.705    l-27.241-324.745c-0.374-4.461,1.149-8.909,4.179-12.203c3.03-3.295,7.335-5.185,11.811-5.185h314.427    c4.477,0,8.781,1.889,11.811,5.184c3.03,3.294,4.554,7.743,4.18,12.204l-27.24,324.745    C439.774,539.705,432.75,546.164,424.476,546.164z M137.289,190.326c-4.197,0-8.234,1.772-11.075,4.861    c-2.841,3.089-4.269,7.26-3.918,11.442l27.241,324.745c0.648,7.732,7.234,13.789,14.994,13.789h259.946    c7.759,0,14.346-6.057,14.994-13.789l27.24-324.745c0.351-4.183-1.078-8.354-3.92-11.443c-2.841-3.089-6.877-4.86-11.074-4.86    H137.289z"
   id="path4" />
	</g>
	<g
   id="g12">
		<path
   d="M89.292,123.835h410.42c11.83,0,21.42-9.59,21.42-21.42c0-11.83-9.59-21.42-21.42-21.42h-77.799v-0.966V58.886    c0-32.194-26.191-58.386-58.385-58.386H225.478c-32.194,0-58.386,26.192-58.386,58.386v21.143v0.966H89.292    c-11.83,0-21.42,9.59-21.42,21.42C67.872,114.245,77.462,123.835,89.292,123.835z M209.931,58.886    c0-8.586,6.96-15.546,15.546-15.546h138.051c8.584,0,15.545,6.96,15.545,15.546v21.143H209.931V58.886z"
   id="path8" />
		<path
   d="M499.712,124.335H89.292c-12.087,0-21.92-9.833-21.92-21.92c0-12.086,9.833-21.92,21.92-21.92h77.299V58.886    C166.591,26.417,193.007,0,225.478,0h138.051c32.469,0,58.885,26.417,58.885,58.886v21.609h77.299    c12.087,0,21.92,9.833,21.92,21.92C521.632,114.502,511.799,124.335,499.712,124.335z M89.292,81.495    c-11.535,0-20.92,9.385-20.92,20.92c0,11.536,9.385,20.92,20.92,20.92h410.42c11.535,0,20.92-9.385,20.92-20.92    c0-11.535-9.385-20.92-20.92-20.92h-78.299V58.886C421.413,26.968,395.446,1,363.528,1H225.478    c-31.918,0-57.886,25.968-57.886,57.886v22.609H89.292z M379.573,80.528H209.431V58.886c0-8.848,7.198-16.046,16.046-16.046    h138.051c8.848,0,16.045,7.198,16.045,16.046V80.528z M210.431,79.528h168.142V58.886c0-8.296-6.749-15.046-15.045-15.046H225.478    c-8.297,0-15.046,6.75-15.046,15.046V79.528z"
   id="path10" />
	</g>
	<g
   id="g18">
		<path
   d="M218.867,272.233c-0.78-11.805-10.99-20.739-22.785-19.961c-11.805,0.78-20.742,10.982-19.961,22.786l12.438,188.198    c0.748,11.323,10.166,20.008,21.352,20.008c0.475,0,0.953-0.016,1.434-0.047c11.804-0.78,20.741-10.981,19.961-22.786    L218.867,272.233z"
   id="path14" />
		<path
   d="M209.91,483.765c-11.494,0-21.092-8.993-21.851-20.475l-12.438-188.198c-0.386-5.843,1.526-11.485,5.384-15.89    s9.201-7.042,15.043-7.429c12.139-0.79,22.526,8.462,23.317,20.427l12.438,188.198c0.797,12.061-8.366,22.521-20.427,23.318    C210.885,483.749,210.396,483.765,209.91,483.765z M197.511,252.725c-0.463,0-0.928,0.016-1.396,0.046    c-5.576,0.369-10.674,2.886-14.357,7.089c-3.682,4.204-5.507,9.589-5.138,15.165l12.438,188.198    c0.754,11.422,10.691,20.246,22.254,19.495c11.51-0.761,20.255-10.744,19.495-22.254l-12.438-188.198    C217.645,261.309,208.483,252.725,197.511,252.725z"
   id="path16" />
	</g>
	<g
   id="g24">
		<path
   d="M294.502,252.226c-11.83,0-21.42,9.59-21.42,21.42v188.198c0,11.83,9.59,21.42,21.42,21.42    c11.831,0,21.42-9.59,21.42-21.42V273.646C315.923,261.816,306.333,252.226,294.502,252.226z"
   id="path20" />
		<path
   d="M294.502,483.764c-12.087,0-21.92-9.833-21.92-21.92V273.646c0-12.087,9.833-21.92,21.92-21.92    c12.087,0,21.92,9.833,21.92,21.92v188.198C316.423,473.931,306.59,483.764,294.502,483.764z M294.502,252.726    c-11.535,0-20.92,9.385-20.92,20.92v188.198c0,11.535,9.385,20.92,20.92,20.92c11.536,0,20.92-9.385,20.92-20.92V273.646    C315.423,262.11,306.038,252.726,294.502,252.726z"
   id="path22" />
	</g>
	<g
   id="g30">
		<path
   d="M392.923,252.272c-11.797-0.778-22.006,8.156-22.785,19.961L357.7,460.432c-0.779,11.805,8.156,22.006,19.961,22.786    c0.482,0.031,0.959,0.047,1.434,0.047c11.186,0,20.604-8.686,21.354-20.008l12.436-188.198    C413.665,263.254,404.728,253.052,392.923,252.272z"
   id="path26" />
		<path
   d="M379.095,483.765c-0.485,0-0.973-0.016-1.466-0.048c-12.061-0.797-21.224-11.258-20.428-23.318l12.438-188.198    c0.79-11.965,11.187-21.222,23.317-20.427c5.843,0.386,11.185,3.024,15.043,7.428s5.771,10.047,5.384,15.89L400.947,463.29    C400.187,474.771,390.588,483.765,379.095,483.765z M391.493,252.725c-10.972,0-20.133,8.583-20.856,19.541l-12.438,188.199    c-0.76,11.51,7.985,21.493,19.495,22.254c11.605,0.75,21.499-8.074,22.255-19.495l12.436-188.198    c0.369-5.576-1.455-10.961-5.138-15.165c-3.683-4.204-8.781-6.721-14.357-7.089C392.422,252.741,391.956,252.725,391.493,252.725z    "
   id="path28" />
	</g>
</g>
<g
   id="g34">
</g>
<g
   id="g36">
</g>
<g
   id="g38">
</g>
<g
   id="g40">
</g>
<g
   id="g42">
</g>
<g
   id="g44">
</g>
<g
   id="g46">
</g>
<g
   id="g48">
</g>
<g
   id="g50">
</g>
<g
   id="g52">
</g>
<g
   id="g54">
</g>
<g
   id="g56">
</g>
<g
   id="g58">
</g>
<g
   id="g60">
</g>
<g
   id="g62">
</g>
<path
   style="fill:#ff7c3c;stroke-width:0.718298"
   d="m 157.61097,587.99095 c -0.16213,-0.16214 -1.34732,-0.40501 -2.63375,-0.53974 -2.80419,-0.29367 -5.14519,-0.7102 -5.39175,-0.95934 -0.0988,-0.0998 -0.5028,-0.26227 -0.89787,-0.36103 -0.39506,-0.0988 -0.87991,-0.26038 -1.07744,-0.35915 -0.19754,-0.0988 -0.68239,-0.26038 -1.07745,-0.35915 -0.39506,-0.0988 -0.87992,-0.26038 -1.07745,-0.35915 -0.19753,-0.0988 -0.68238,-0.26038 -1.07744,-0.35915 -0.39507,-0.0988 -0.96073,-0.25825 -1.25702,-0.35442 -0.2963,-0.0962 -0.78115,-0.13657 -1.07745,-0.0898 -0.2963,0.0468 -0.53872,-0.25725 -0.53872,-0.67563 0,-0.41838 -0.32324,-0.56092 -0.7183,-0.31675 -0.39506,0.24416 -0.7183,0.0825 -0.7183,-0.35915 0,-0.4417 -0.32323,-0.60331 -0.7183,-0.35915 -0.39506,0.24416 -0.71829,0.0825 -0.71829,-0.35915 0,-0.44169 -0.32324,-0.60331 -0.7183,-0.35915 -0.39507,0.24417 -0.7183,0.0478 -0.7183,-0.43647 0,-0.48423 -0.19602,-0.68438 -0.43561,-0.44479 -0.23959,0.23958 -1.09662,-0.18022 -1.90453,-0.9329 -0.8079,-0.75267 -1.70932,-1.21991 -2.00316,-1.03831 -0.29384,0.1816 -0.73734,-0.19908 -0.98557,-0.84595 -0.24823,-0.64687 -0.65715,-0.9703 -0.90871,-0.71874 -0.25157,0.25156 -0.90875,-0.18702 -1.46042,-0.97464 -0.55167,-0.78761 -1.28686,-1.43202 -1.63375,-1.43202 -0.85698,0 -8.32693,-7.52327 -8.86676,-8.93004 -0.23768,-0.61937 -0.76552,-1.12613 -1.17298,-1.12613 -0.40746,0 -0.74084,-0.48485 -0.74084,-1.07745 0,-0.59259 -0.32324,-1.07744 -0.7183,-1.07744 -0.39506,0 -0.7183,-0.48485 -0.7183,-1.07745 0,-0.5926 -0.32323,-1.07745 -0.71829,-1.07745 -0.39507,0 -0.65364,-0.24242 -0.57461,-0.53872 0.079,-0.2963 -0.79462,-2.31651 -1.94143,-4.48936 -1.14682,-2.17285 -2.14078,-4.19306 -2.2088,-4.48936 -0.068,-0.2963 -0.20448,-0.70034 -0.30325,-0.89787 -0.0988,-0.19753 -0.26038,-0.68238 -0.35915,-1.07745 -0.0988,-0.39506 -0.26038,-0.87991 -0.35915,-1.07744 -0.0988,-0.19754 -0.26038,-0.68239 -0.35914,-1.07745 -0.0988,-0.39506 -0.25727,-0.96072 -0.35222,-1.25702 -0.0949,-0.2963 -0.24774,-0.86196 -0.33953,-1.25702 -0.0918,-0.39507 -0.25737,-0.87992 -0.36797,-1.07745 -0.65502,-1.16995 -1.32657,-7.08798 -2.52677,-22.26722 -0.20303,-2.56792 -0.53078,-6.60834 -0.72831,-8.97872 L 103.789,503.5266 c -0.19754,-2.37038 -0.51329,-6.08757 -0.70169,-8.26042 -0.18839,-2.17285 -0.52202,-6.21327 -0.74138,-8.97872 -0.21937,-2.76544 -0.56928,-6.96748 -0.77759,-9.33787 -0.2083,-2.37038 -0.5127,-5.92595 -0.67643,-7.90127 -0.16374,-1.97532 -0.46011,-5.36927 -0.6586,-7.54212 -0.1985,-2.17286 -0.530182,-6.05166 -0.737077,-8.61958 -0.206895,-2.56791 -0.533282,-6.44672 -0.725306,-8.61957 -0.192024,-2.17285 -0.515257,-6.05165 -0.718298,-8.61957 -0.20304,-2.56791 -0.53078,-6.60834 -0.728312,-8.97872 l -0.718298,-8.61957 -0.718297,-8.61957 c -0.197532,-2.37038 -0.516259,-6.08757 -0.708283,-8.26042 -0.192024,-2.17285 -0.515257,-6.05166 -0.718298,-8.61957 -0.493519,-6.2417 -1.00526,-12.36449 -1.470861,-17.5983 -0.21087,-2.37038 -0.529986,-6.08757 -0.709148,-8.26042 -0.179161,-2.17285 -0.483822,-5.72842 -0.677023,-7.90127 -0.193201,-2.17285 -0.520553,-6.05166 -0.727447,-8.61957 -0.206895,-2.56792 -0.537789,-6.60834 -0.735321,-8.97872 l -0.718298,-8.61957 -0.718297,-8.61957 -0.718298,-8.61958 c -0.197532,-2.37038 -0.516259,-6.08757 -0.708283,-8.26042 -0.192023,-2.17285 -0.51075,-5.89004 -0.708282,-8.26042 -0.197532,-2.37038 -0.525273,-6.41081 -0.728313,-8.97872 -0.20304,-2.56791 -0.523304,-6.44672 -0.711699,-8.61957 -0.188394,-2.17285 -0.522017,-6.21328 -0.741385,-8.97872 -0.219367,-2.76545 -0.56928,-6.96749 -0.777583,-9.33787 -0.208304,-2.37038 -0.5127,-5.92596 -0.676436,-7.90127 -0.163736,-1.97532 -0.460107,-5.36928 -0.658602,-7.54213 -0.198495,-2.17285 -0.530177,-6.05166 -0.737072,-8.61957 -0.376561,-4.67377 -0.647679,-7.88128 -1.517864,-17.95744 -0.737434,-8.53899 -0.46798,-26.93536 0.42084,-28.7319 0.09773,-0.19754 0.128066,-0.6356 0.06742,-0.97348 -0.06065,-0.33789 0.263889,-1.06516 0.721187,-1.61617 0.457299,-0.55101 0.590679,-1.00184 0.2964,-1.00184 -0.294279,0 -0.132662,-0.48485 0.359149,-1.07745 0.49181,-0.59259 0.653427,-1.07744 0.359149,-1.07744 -0.294279,0 -0.175045,-0.43379 0.264965,-0.96397 0.440009,-0.53017 0.587332,-1.17664 0.327384,-1.43659 -0.259948,-0.25995 -0.09553,-0.47263 0.365381,-0.47263 0.460907,0 0.779776,-0.24243 0.708596,-0.53873 -0.175553,-0.73076 2.507095,-6.22462 3.186658,-6.52603 0.298759,-0.1325 0.360491,-0.53655 0.137183,-0.89787 -0.22331,-0.36132 -0.06371,-0.65695 0.354673,-0.65695 0.418379,0 0.760689,-0.48485 0.760689,-1.07744 0,-0.5926 0.323234,-1.07745 0.718298,-1.07745 0.395064,0 0.718297,-0.36841 0.718297,-0.81868 0,-0.45028 0.56566,-1.23231 1.257021,-1.73784 0.691362,-0.50554 1.278305,-1.18764 1.304319,-1.51579 0.06936,-0.87489 7.379093,-8.13875 8.190152,-8.13875 0.3799,0 1.04155,-0.65552 1.47034,-1.45671 0.42878,-0.80119 1.0889,-1.26556 1.46694,-1.03192 0.37803,0.23364 0.88053,-0.0787 1.11667,-0.69405 0.23614,-0.61537 0.66975,-0.97027 0.96359,-0.78867 0.29384,0.1816 1.19526,-0.28564 2.00317,-1.03832 0.8079,-0.75267 1.66494,-1.17247 1.90452,-0.93289 0.23959,0.23959 0.43561,0.0394 0.43561,-0.44479 0,-0.48422 0.32324,-0.68064 0.7183,-0.43647 0.39506,0.24416 0.7183,0.0825 0.7183,-0.35915 0,-0.4417 0.32323,-0.60331 0.71829,-0.35915 0.39507,0.24416 0.7183,0.0825 0.7183,-0.35915 0,-0.4417 0.32324,-0.60331 0.7183,-0.35915 0.39506,0.24416 0.7183,0.10162 0.7183,-0.31676 0,-0.41838 0.24242,-0.72241 0.53872,-0.67562 0.2963,0.0468 0.70034,0.0228 0.89787,-0.0534 0.19753,-0.0761 1.14187,-0.28247 2.09852,-0.45851 0.95665,-0.17603 2.16878,-0.67644 2.69362,-1.11202 0.52483,-0.43557 0.95424,-0.55118 0.95424,-0.2569 0,0.29428 0.45083,0.1609 1.00184,-0.2964 0.55101,-0.4573 1.27829,-0.78183 1.61617,-0.72119 0.33788,0.0607 0.77595,0.0303 0.97348,-0.0674 0.19753,-0.0977 1.32885,-0.26703 2.51404,-0.37624 3.92519,-0.36167 331.81075,-0.30604 334.00839,0.0567 4.09895,0.67652 5.02883,0.86285 5.20765,1.04355 0.0988,0.0998 0.422,0.24978 0.7183,0.33328 0.2963,0.0835 1.07914,0.39123 1.73965,0.68383 0.66051,0.29261 1.79183,0.64401 2.51404,0.78088 0.72222,0.13688 1.47473,0.31188 1.67227,0.38889 0.19753,0.077 0.60157,0.10174 0.89787,0.055 0.2963,-0.0468 0.53872,0.25724 0.53872,0.67562 0,0.41838 0.32323,0.56092 0.7183,0.31676 0.39506,-0.24416 0.7183,-0.0825 0.7183,0.35915 0,0.44169 0.32323,0.60331 0.71829,0.35915 0.39507,-0.24417 0.7183,-0.0825 0.7183,0.35915 0,0.44169 0.32323,0.60331 0.7183,0.35915 0.39506,-0.24417 0.7183,-0.0478 0.7183,0.43647 0,0.48422 0.19602,0.68438 0.43561,0.44479 0.23959,-0.23958 1.09662,0.18022 1.90452,0.93289 0.80791,0.75268 1.70933,1.21992 2.00317,1.03832 0.29383,-0.1816 0.73734,0.19908 0.98557,0.84595 0.24823,0.64687 0.65715,0.9703 0.90871,0.71874 0.25157,-0.25156 0.90875,0.18702 1.46042,0.97464 0.55167,0.78761 1.26176,1.43202 1.57798,1.43202 0.74876,0 8.24344,7.35962 8.2881,8.13875 0.0188,0.32815 0.59987,1.01025 1.29123,1.51579 0.69136,0.50553 1.25702,1.28756 1.25702,1.73784 0,0.45027 0.32323,0.81868 0.7183,0.81868 0.39506,0 0.71829,0.48485 0.71829,1.07745 0,0.59259 0.34232,1.07744 0.7607,1.07744 0.41838,0 0.57797,0.29563 0.35467,0.65695 -0.22331,0.36132 -0.16158,0.76537 0.13718,0.89787 0.67956,0.30141 3.36221,5.79527 3.18666,6.52603 -0.0712,0.2963 0.19381,0.53873 0.58888,0.53873 0.39506,0 0.68002,0.24242 0.63323,0.53872 -0.0468,0.2963 -0.006,0.78115 0.0898,1.07745 0.0962,0.29629 0.25566,0.86195 0.35442,1.25702 0.0988,0.39506 0.26039,0.87991 0.35915,1.07744 0.0988,0.19753 0.26039,0.68239 0.35915,1.07745 0.0988,0.39506 0.26123,0.7991 0.36103,0.89787 0.0998,0.0988 0.28746,0.82604 0.417,1.61617 0.12955,0.79013 0.4379,2.4063 0.68522,3.59149 0.59937,2.87225 0.6267,19.46941 0.0432,26.21786 -0.85057,9.83691 -1.13883,13.24594 -1.51844,17.95744 -0.20689,2.56791 -0.53857,6.44672 -0.73707,8.61957 -0.1985,2.17285 -0.49487,5.56681 -0.6586,7.54213 -0.16374,1.97531 -0.46813,5.53089 -0.67644,7.90127 -0.20831,2.37038 -0.55822,6.57242 -0.77759,9.33787 -0.21936,2.76544 -0.55298,6.80587 -0.74138,8.97872 -0.48591,5.60424 -1.00163,11.82147 -1.42999,17.23914 -0.20304,2.56791 -0.52628,6.44672 -0.7183,8.61957 -0.19202,2.17285 -0.51075,5.89004 -0.70828,8.26042 l -0.7183,8.61958 -0.7183,8.61957 -0.7183,8.61957 c -0.19753,2.37038 -0.52842,6.4108 -0.73532,8.97872 -0.20689,2.56791 -0.53857,6.44672 -0.73707,8.61957 -0.1985,2.17285 -0.49487,5.56681 -0.6586,7.54212 -0.16374,1.97532 -0.46813,5.5309 -0.67644,7.90128 -0.2083,2.37038 -0.55822,6.57242 -0.77758,9.33787 -0.21937,2.76544 -0.55299,6.80587 -0.74139,8.97872 -0.18839,2.17285 -0.50415,5.89004 -0.70168,8.26042 l -0.7183,8.61957 c -0.19753,2.37038 -0.52527,6.41081 -0.72831,8.97872 -0.20304,2.56791 -0.52627,6.44672 -0.7183,8.61957 -0.19202,2.17285 -0.51525,6.05166 -0.71829,8.61957 -0.64619,8.17256 -1.62119,19.73414 -2.18068,25.85872 -0.1985,2.17285 -0.49487,5.5668 -0.6586,7.54212 -0.16374,1.97532 -0.46813,5.53089 -0.67644,7.90127 -0.20831,2.37039 -0.55822,6.57243 -0.77759,9.33787 -0.21936,2.76545 -0.55298,6.80587 -0.74138,8.97872 -0.18839,2.17285 -0.50415,5.89004 -0.70168,8.26042 l -0.7183,8.61958 c -0.19753,2.37038 -0.52527,6.4108 -0.72831,8.97872 -1.12968,14.28747 -1.91023,21.166 -2.52677,22.26722 -0.1106,0.19753 -0.27618,0.68238 -0.36796,1.07745 -0.0918,0.39506 -0.24458,0.96072 -0.33953,1.25702 -0.095,0.2963 -0.25346,0.86196 -0.35222,1.25702 -0.0988,0.39506 -0.26038,0.87991 -0.35915,1.07745 -0.0988,0.19753 -0.26038,0.68238 -0.35915,1.07744 -0.0988,0.39507 -0.26038,0.87992 -0.35915,1.07745 -0.0988,0.19753 -0.23523,0.60157 -0.30325,0.89787 -0.068,0.2963 -1.06197,2.31651 -2.20879,4.48936 -1.14682,2.17285 -2.02046,4.19306 -1.94143,4.48936 0.079,0.2963 -0.17953,0.53872 -0.5746,0.53872 -0.39506,0 -0.71829,0.48485 -0.71829,1.07745 0,0.5926 -0.32324,1.07745 -0.7183,1.07745 -0.39507,0 -0.7183,0.45027 -0.7183,1.00059 0,0.55033 -0.48485,1.18665 -1.07745,1.41406 -0.59259,0.2274 -1.07744,0.72575 -1.07744,1.10745 0,0.86674 -7.76526,8.68896 -8.62569,8.68896 -0.3469,0 -1.08208,0.64441 -1.63375,1.43202 -0.55167,0.78762 -1.20885,1.2262 -1.46042,0.97464 -0.25156,-0.25156 -0.66048,0.0719 -0.90871,0.71874 -0.24822,0.64687 -0.69174,1.02755 -0.98557,0.84595 -0.29384,-0.1816 -1.19526,0.28564 -2.00317,1.03831 -0.8079,0.75268 -1.66493,1.17248 -1.90452,0.9329 -0.23959,-0.23959 -0.43561,-0.0394 -0.43561,0.44479 0,0.48422 -0.32324,0.68064 -0.7183,0.43647 -0.39506,-0.24416 -0.7183,-0.0825 -0.7183,0.35915 0,0.4417 -0.32323,0.60331 -0.7183,0.35915 -0.39506,-0.24416 -0.71829,-0.0825 -0.71829,0.35915 0,0.44169 -0.32324,0.60331 -0.7183,0.35915 -0.39506,-0.24417 -0.7183,-0.0825 -0.7183,0.35915 0,0.44169 -0.3009,0.61711 -0.66866,0.38982 -0.36777,-0.22729 -0.87495,-0.0795 -1.12708,0.32847 -0.25213,0.40795 -0.75931,0.55577 -1.12708,0.32847 -0.36776,-0.22729 -0.66867,-0.0519 -0.66867,0.38983 0,0.4417 -0.33739,0.59457 -0.74976,0.33971 -0.41237,-0.25486 -1.22045,-0.0728 -1.79574,0.4047 -0.57529,0.47745 -1.04598,0.62732 -1.04598,0.33304 0,-0.29428 -0.40405,-0.2163 -0.89788,0.17329 -0.49383,0.38958 -1.38272,0.74895 -1.97531,0.79859 -0.5926,0.0496 -2.20877,0.23467 -3.59149,0.41119 -3.17586,0.40544 -275.84152,0.8763 -276.24078,0.47704 z m 270.4944,-42.62026 c 0.98766,-0.23223 2.16081,-0.44918 2.607,-0.48211 1.05093,-0.0775 7.14588,-5.986 6.91044,-6.699 -0.0988,-0.29911 0.16274,-0.54383 0.58112,-0.54383 0.41838,0 0.56092,-0.32323 0.31675,-0.7183 -0.24416,-0.39506 -0.10162,-0.71829 0.31676,-0.71829 0.41838,0 0.72241,-0.24243 0.67563,-0.53873 -0.0468,-0.2963 -0.0149,-0.70034 0.071,-0.89787 0.16581,-0.3816 0.41945,-3.01148 1.0738,-11.13361 0.57207,-7.1008 1.06758,-13.01088 1.47548,-17.59829 0.1932,-2.17285 0.49786,-5.72843 0.67702,-7.90128 0.17916,-2.17285 0.50278,-6.05165 0.71916,-8.61957 0.21638,-2.56791 0.55503,-6.60834 0.75256,-8.97872 l 0.7183,-8.61957 0.7183,-8.61957 0.71829,-8.61957 0.7183,-8.61957 c 0.19753,-2.37039 0.51626,-6.08758 0.70829,-8.26043 0.19202,-2.17285 0.51525,-6.05165 0.71829,-8.61957 0.20304,-2.56791 0.53078,-6.60833 0.72831,-8.97872 0.19754,-2.37038 0.51627,-6.08757 0.70829,-8.26042 0.19202,-2.17285 0.51841,-6.05166 0.72531,-8.61957 0.20689,-2.56791 0.53476,-6.44672 0.7286,-8.61957 0.79595,-8.92233 1.00657,-11.36279 1.39484,-16.1617 0.22374,-2.76544 0.56094,-6.80587 0.74934,-8.97872 0.18839,-2.17285 0.50415,-5.89004 0.70168,-8.26042 l 0.7183,-8.61957 c 0.19753,-2.37038 0.52527,-6.41081 0.72831,-8.97872 0.47,-5.94415 0.9921,-12.20948 1.43659,-17.23914 0.19203,-2.17285 0.51526,-6.05166 0.7183,-8.61957 0.20304,-2.56792 0.53078,-6.60834 0.72831,-8.97872 l 0.7183,-8.61958 c 0.58377,-7.00521 1.06835,-12.67016 1.4439,-16.87999 0.79595,-8.92233 1.00657,-11.36279 1.39483,-16.16169 0.56915,-7.03457 1.05148,-12.92257 1.47106,-17.95744 l 0.71829,-8.61958 0.7183,-8.61957 0.7183,-8.61957 c 0.19753,-2.37038 0.52311,-6.24919 0.72349,-8.61957 0.66624,-7.8808 0.70745,-12.7016 0.11175,-13.06977 -0.32398,-0.20023 -0.41554,-0.8162 -0.20348,-1.36884 0.21209,-0.55263 0.0534,-1.00479 -0.35254,-1.00479 -0.40599,0 -0.53838,-0.32323 -0.29422,-0.71829 0.24416,-0.39507 0.10163,-0.7183 -0.31675,-0.7183 -0.41838,0 -0.69376,-0.24243 -0.61195,-0.53873 0.20979,-0.75983 -4.15109,-5.20765 -5.10587,-5.20765 -0.43409,0 -0.78926,-0.32324 -0.78926,-0.7183 0,-0.39506 -0.24242,-0.68002 -0.53872,-0.63324 -0.2963,0.0468 -0.70034,0.0221 -0.89787,-0.0549 -0.19753,-0.077 -1.00562,-0.34957 -1.79575,-0.60568 -1.87804,-0.60875 -320.63757,-0.60875 -322.51562,0 -0.79012,0.25611 -1.59821,0.52867 -1.79574,0.60568 -0.19753,0.077 -0.60157,0.10174 -0.89787,0.0549 -0.2963,-0.0468 -0.53873,0.23818 -0.53873,0.63324 0,0.39506 -0.29837,0.7183 -0.66304,0.7183 -0.88928,0 -5.44559,4.52544 -5.24318,5.20765 0.0879,0.2963 -0.18247,0.53873 -0.60085,0.53873 -0.41837,0 -0.56092,0.32323 -0.31675,0.7183 0.24416,0.39506 0.15549,0.71829 -0.19704,0.71829 -0.78767,0 -0.86972,0.58756 -0.90275,6.46468 -0.0243,4.31876 0.16759,7.46574 1.09478,17.95744 0.19202,2.17285 0.51526,6.05166 0.7183,8.61957 0.42836,5.41768 0.94409,11.63491 1.42999,17.23914 0.1884,2.17285 0.52202,6.21328 0.74139,8.97872 0.21937,2.76545 0.56928,6.96749 0.77758,9.33787 0.20831,2.37039 0.5127,5.92596 0.67644,7.90128 0.16373,1.97532 0.46011,5.36927 0.6586,7.54212 0.55949,6.12457 1.53449,17.68615 2.18068,25.85871 0.20304,2.56792 0.52627,6.44673 0.71829,8.61958 0.19203,2.17285 0.51526,6.05165 0.7183,8.61957 0.20304,2.56791 0.52628,6.44672 0.7183,8.61957 0.19202,2.17285 0.51075,5.89004 0.70828,8.26042 l 0.7183,8.61957 c 0.53998,6.47973 1.01935,12.36333 1.4631,17.95744 0.21937,2.76545 0.56928,6.96749 0.77758,9.33787 0.20831,2.37038 0.5127,5.92596 0.67644,7.90127 0.16373,1.97532 0.4601,5.36928 0.6586,7.54213 0.55949,6.12457 1.53449,17.68615 2.18068,25.85871 0.20303,2.56792 0.53078,6.60834 0.72831,8.97872 l 0.71829,8.61957 c 0.19754,2.37039 0.51626,6.08758 0.70829,8.26043 0.19202,2.17285 0.51075,5.89004 0.70828,8.26042 l 0.7183,8.61957 0.7183,8.61957 c 0.19753,2.37038 0.53618,6.41081 0.75256,8.97872 0.21638,2.56791 0.54,6.44672 0.71916,8.61957 0.17916,2.17285 0.48382,5.72842 0.67703,7.90127 0.62946,7.07932 1.23287,14.29066 2.19377,26.21787 0.65434,8.12213 0.90799,10.75201 1.0738,11.13361 0.0858,0.19753 0.11777,0.60157 0.071,0.89787 -0.0468,0.2963 0.25725,0.53873 0.67563,0.53873 0.41838,0 0.56092,0.32323 0.31675,0.71829 -0.24416,0.39507 -0.10162,0.7183 0.31676,0.7183 0.41838,0 0.67988,0.24472 0.58112,0.54383 -0.26813,0.81201 5.99079,6.68386 6.67422,6.26147 0.32398,-0.20023 0.79535,-0.0302 1.04748,0.37768 0.25213,0.40795 0.75675,0.55734 1.12139,0.33199 0.36463,-0.22536 1.23119,-0.0779 1.92568,0.32774 1.35251,0.78994 262.58703,0.67426 265.95538,-0.11777 z"
   id="path958" /><path
   style="fill:#ff7c3c;stroke-width:0.718298"
   d="m 215.66885,147.07147 c 43.35824,-0.10227 114.30809,-0.10227 157.66633,0 43.35823,0.10226 7.88331,0.18593 -78.83317,0.18593 -86.71647,0 -122.1914,-0.0837 -78.83316,-0.18593 z"
   id="path997" /><path
   style="fill:#ff7c3c;stroke-width:0.718298"
   d="m 377.27839,482.97824 c -0.88569,-0.32764 -2.06214,-0.42233 -2.61434,-0.21043 -0.55219,0.21189 -1.22064,0.0347 -1.48543,-0.39372 -0.26479,-0.42845 -0.78233,-0.59302 -1.1501,-0.36572 -0.36776,0.22729 -0.66866,0.0519 -0.66866,-0.38983 0,-0.4417 -0.29718,-0.61942 -0.66039,-0.39494 -0.36322,0.22448 -1.1713,-0.10277 -1.79575,-0.72722 -0.62444,-0.62444 -1.13535,-0.96142 -1.13535,-0.74884 0,0.43709 -3.86944,-3.42663 -6.22688,-6.21768 -0.85688,-1.01447 -1.36866,-2.03379 -1.13731,-2.26514 0.23136,-0.23135 0.0245,-0.42065 -0.45976,-0.42065 -0.48422,0 -0.69444,-0.3009 -0.46715,-0.66866 0.22729,-0.36777 0.0795,-0.87495 -0.32847,-1.12708 -0.40795,-0.25213 -0.56957,-0.73698 -0.35915,-1.07745 0.21042,-0.34046 0.0942,-0.79728 -0.25835,-1.01514 -0.60159,-0.37181 -0.47153,-11.47893 0.25727,-21.97038 0.31185,-4.48919 0.60928,-9.09342 1.43847,-22.26723 0.21136,-3.35804 0.53191,-8.20655 0.71234,-10.77446 0.36513,-5.19673 1.09208,-16.06062 2.1629,-32.32339 0.16908,-2.56791 0.4914,-7.41642 0.71627,-10.77446 0.22486,-3.35805 0.55446,-8.36817 0.73243,-11.13362 0.17798,-2.76544 0.49678,-7.61395 0.70846,-10.77446 0.21167,-3.16051 0.51259,-7.8474 0.66871,-10.41532 0.15611,-2.56791 0.48679,-7.57804 0.73483,-11.13361 0.24805,-3.55557 0.58723,-8.5657 0.75375,-11.13361 0.16652,-2.56792 0.48765,-7.41642 0.71363,-10.77447 0.22598,-3.35804 0.54922,-8.20655 0.7183,-10.77446 0.16908,-2.56791 0.50628,-7.41642 0.74933,-10.77446 0.24305,-3.35805 0.49648,-7.39847 0.56317,-8.97872 0.0667,-1.58026 0.38275,-3.27724 0.70237,-3.77107 0.31961,-0.49383 0.38134,-1.2211 0.13718,-1.61617 -0.24416,-0.39506 -0.0478,-0.71829 0.43647,-0.71829 0.48422,0 0.67447,-0.20594 0.42276,-0.45765 -0.2517,-0.2517 0.20129,-1.38302 1.00665,-2.51404 0.80535,-1.13102 1.31868,-2.0564 1.14073,-2.0564 -0.17796,0 0.96938,-1.29293 2.54963,-2.87319 1.58026,-1.58025 3.1584,-2.87319 3.50698,-2.87319 0.34859,0 0.6338,-0.34231 0.6338,-0.76069 0,-0.41838 0.32323,-0.56092 0.71829,-0.31675 0.39507,0.24416 0.7183,0.0825 0.7183,-0.35915 0,-0.4417 0.32323,-0.60331 0.7183,-0.35915 0.39506,0.24416 0.7183,0.10162 0.7183,-0.31676 0,-0.41838 0.24242,-0.72241 0.53872,-0.67563 0.2963,0.0468 0.70034,0.005 0.89787,-0.0926 2.20689,-1.09183 11.94269,-1.00778 12.63294,0.10907 0.21763,0.35212 0.69658,0.45426 1.06435,0.22697 0.36776,-0.2273 0.66866,-0.0519 0.66866,0.38982 0,0.44169 0.29718,0.61942 0.66039,0.39494 0.36322,-0.22448 1.1713,0.10277 1.79575,0.72721 0.62444,0.62445 1.13535,0.99318 1.13535,0.81941 0,-0.17376 1.45455,1.13861 3.23234,2.9164 1.77779,1.77779 3.23234,3.51304 3.23234,3.85612 0,0.34309 0.34231,0.62379 0.76069,0.62379 0.41838,0 0.56092,0.32323 0.31676,0.7183 -0.24417,0.39506 -0.10163,0.71829 0.31675,0.71829 0.41838,0 0.72241,0.24243 0.67563,0.53873 -0.0468,0.29629 -0.022,0.70034 0.055,0.89787 1.00409,2.57548 1.1776,11.07128 0.4401,21.54893 -0.56726,8.05912 -0.95473,13.9313 -1.46927,22.26722 -0.20728,3.35804 -0.53057,8.36817 -0.71843,11.13362 -0.18786,2.76544 -0.51704,7.77557 -0.7315,11.13361 -0.21446,3.35804 -0.53755,8.20655 -0.71797,10.77446 -0.36513,5.19673 -1.09208,16.06063 -2.16291,32.32339 -0.16908,2.56792 -0.4914,7.41643 -0.71626,10.77447 -0.22487,3.35804 -0.55108,8.36816 -0.72493,11.13361 -0.64835,10.3136 -1.10517,17.37309 -1.41768,21.90808 -0.39948,5.797 -1.04503,15.38469 -1.45091,21.54892 -0.16909,2.56792 -0.50082,7.41643 -0.73718,10.77447 -0.23637,3.35804 -0.55249,7.88331 -0.7025,10.05617 -0.15001,2.17285 -0.31141,4.50993 -0.35869,5.19351 -0.0473,0.68358 -0.39388,1.43319 -0.77025,1.6658 -0.37637,0.23261 -0.49834,0.72382 -0.27105,1.09159 0.22729,0.36776 0.0519,0.66867 -0.38982,0.66867 -0.4417,0 -0.60332,0.32323 -0.35915,0.71829 0.24416,0.39507 0.0825,0.7183 -0.35915,0.7183 -0.4417,0 -0.60331,0.32324 -0.35915,0.7183 0.24416,0.39506 0.10162,0.7183 -0.31676,0.7183 -0.41838,0 -0.76069,0.35517 -0.76069,0.78925 0,0.8445 -4.12215,4.95713 -4.9686,4.95713 -0.27879,0 -1.21431,0.65906 -2.07893,1.46458 -0.86462,0.80551 -1.57204,1.25078 -1.57204,0.98949 0,-0.2613 -0.48485,-0.0727 -1.07744,0.41912 -0.5926,0.49181 -1.07745,0.65343 -1.07745,0.35915 0,-0.29428 -0.49266,-0.12618 -1.09481,0.37355 -0.60214,0.49974 -1.27294,0.73047 -1.49066,0.51275 -0.21772,-0.21772 -1.2634,-0.14705 -2.32373,0.15705 -1.06034,0.3041 -2.65254,0.28484 -3.53822,-0.0428 z"
   id="path1073" /><path
   style="fill:#ff7c3c;stroke-width:1.01583"
   d="m 289.27078,482.06598 c -5.35111,-1.71154 -9.96011,-5.35248 -12.72108,-10.04916 l -2.78454,-4.73677 v -99.55097 -99.55096 l 2.82052,-4.79818 c 4.74257,-8.06789 14.43709,-12.25942 23.01337,-9.95007 5.38401,1.44977 12.72311,8.05907 14.49335,13.05213 1.91305,5.39588 1.94051,197.02373 0.029,202.40628 -1.46009,4.11142 -6.32822,9.49741 -10.56407,11.68785 -3.65209,1.88857 -10.73173,2.62686 -14.28656,1.48985 z"
   id="path3516" /><path
   style="fill:#ff7c3c;stroke-width:1.01583"
   d="m 205.19032,482.07623 c -7.68737,-2.33839 -12.91216,-7.29813 -15.05186,-14.28826 -0.59857,-1.95547 -3.93121,-46.85482 -7.40587,-99.77632 -7.09755,-108.10076 -7.13379,-101.64094 0.61214,-109.10047 9.58104,-9.22681 24.15592,-7.60377 31.50994,3.50891 3.37878,5.10569 3.11087,2.19524 10.26766,111.54434 4.99649,76.34166 5.67269,90.15779 4.58951,93.77312 -3.0975,10.33853 -14.92869,17.25669 -24.52152,14.33868 z"
   id="path3555" /><path
   style="fill:#ff7c3c;stroke-width:1.01583"
   d="m 82.789835,122.201 c -13.87725,-4.86795 -18.6501,-21.56886 -9.37853,-32.816886 6.230322,-7.558461 6.259891,-7.56271 52.805105,-7.587795 l 41.39491,-0.02231 V 67.207024 c 0,-24.163337 3.87707,-35.053507 17.24837,-48.448419 8.36752,-8.382305 16.21152,-13.0952944 26.54685,-15.9504229 5.93476,-1.639473 13.03004,-1.7923559 83.18306,-1.7923559 85.18658,0 82.38338,-0.20182486 95.99557,6.9114734 7.80485,4.0785624 19.69608,15.8056494 23.35496,23.0325674 6.06357,11.976595 6.85741,15.613961 7.37649,33.799053 l 0.4857,17.015089 h 41.05636 c 34.75923,0 41.63351,0.241145 44.81923,1.572223 15.44528,6.453449 17.07297,27.687048 2.79888,36.512198 l -4.94375,3.05654 -209.84786,0.17752 C 150.99571,123.21489 84.891063,122.93808 82.789835,122.201 Z M 379.76471,67.117351 c -0.39095,-15.080321 -1.09006,-16.98213 -7.96199,-21.659128 l -3.35826,-2.285609 h -73.61282 -73.61282 l -3.94757,2.218656 c -6.40636,3.60058 -8.01105,8.205643 -8.01105,22.989806 v 12.377107 h 85.42906 85.42907 z"
   id="path3594" /></svg>
