<?xml version="1.0" encoding="UTF-8" standalone="no"?>
<svg
   data-name="Layer 1"
   width="613.35286"
   height="700.56123"
   viewBox="0 0 613.35286 700.56123"
   version="1.1"
   id="svg84"
   sodipodi:docname="welcome.svg"
   inkscape:version="1.1.2 (b8e25be833, 2022-02-05)"
   xmlns:inkscape="http://www.inkscape.org/namespaces/inkscape"
   xmlns:sodipodi="http://sodipodi.sourceforge.net/DTD/sodipodi-0.dtd"
   xmlns="http://www.w3.org/2000/svg"
   xmlns:svg="http://www.w3.org/2000/svg">
  <defs
     id="defs88" />
  <sodipodi:namedview
     id="namedview86"
     pagecolor="#ffffff"
     bordercolor="#666666"
     borderopacity="1.0"
     inkscape:pageshadow="2"
     inkscape:pageopacity="0.0"
     inkscape:pagecheckerboard="0"
     showgrid="false"
     inkscape:zoom="1.1704901"
     inkscape:cx="306.28195"
     inkscape:cy="416.49219"
     inkscape:window-width="2400"
     inkscape:window-height="1284"
     inkscape:window-x="-2409"
     inkscape:window-y="-9"
     inkscape:window-maximized="1"
     inkscape:current-layer="svg84" />
  <path
     d="M587.667,756.93133l-.78168-17.57606q-.12187-.06468-.24405-.12879c-8.37606-4.39513-17.97576,3.561-15.3004,12.63392,2.51722,8.5366,4.20846,17.73958,8.81613,25.21162a34.14441,34.14441,0,0,0,25.03847,15.77861l10.64166,6.51555a57.21525,57.21525,0,0,0-12.05953-46.36368,55.2668,55.2668,0,0,0-10.157-9.4375C591.07189,750.28541,587.667,756.93133,587.667,756.93133Z"
     transform="translate(-293.32357 -99.71938)"
     fill="#f2f2f2"
     id="path2" />
  <path
     d="M492.3909,578.56387c-20.48783-21.12931-50.17767-33.24712-81.45666-33.24712l-1.20652.00324a116.3146,116.3146,0,0,1-58.63546-15.83485l-1.85205-1.07912,1.49167-1.537a113.37272,113.37272,0,0,0,19.99317-28.30616,34.28239,34.28239,0,0,1-27.66751,8.93789,35.10416,35.10416,0,0,1-25.77016-16.50626c-10.93231-17.73787-23.96381-42.90658-23.96381-62.0803a116.66888,116.66888,0,0,1,38.0631-86.091,72.65143,72.65143,0,0,0,23.99981-54.17137l-.00607-1.45284a164.77416,164.77416,0,0,1,4.8908-39.87268l.33005-1.31694,1.355.04732a111.39121,111.39121,0,0,0,26.04681-2.1821,87.918,87.918,0,0,1-23.35954-6.213l-1.45769-.58971.4947-1.4937C397.78172,214.464,474.7579,225.398,519.43718,123.17462,555.666,40.28535,683.49348,196.75549,683.49348,287.199c0,9.2287-9.13324,21.42423-2.29615,27.52391,73.90979,65.93827,22.91308,108.27972,6.83466,150.88534-3.81479,10.10871,4.45682,21.20613,4.45682,32.14249,0,1.85569-.04732,3.77124-.14076,5.69327l-.14237,2.955-2.46441-1.63971a81.62563,81.62563,0,0,1-13.47964-11.05649,71.13531,71.13531,0,0,1-2.25612,61.41172c-7.74552,14.619-15.23907,25.085-22.27193,31.10507a116.2904,116.2904,0,0,1-159.34268-7.65574Z"
     transform="translate(-293.32357 -99.71938)"
     fill="#e6e6e6"
     id="path4" />
  <path
     d="M616.13152,798.499a2.09333,2.09333,0,0,0,2.06993-1.79837c.08893-.62489,8.80049-63.45379.97652-146.956-7.22548-77.11632-30.4294-188.191-99.9393-279.41478a2.0935,2.0935,0,1,0-3.33028,2.53775c68.90954,90.436,91.9264,200.69567,99.10094,277.2675,7.77849,83.01636-.86476,145.3553-.953,145.97542a2.09519,2.09519,0,0,0,2.0752,2.38851Z"
     transform="translate(-293.32357 -99.71938)"
     fill="#3f3d56"
     id="path6" />
  <path
     d="M559.40732,499.0052a2.09343,2.09343,0,0,0,1.23242-3.78686c-.25231-.18331-25.681-18.50562-63.69657-32.425-35.14253-12.86589-88.582-24.5297-143.597-7.02036a2.0932,2.0932,0,1,0,1.26956,3.98925c53.88785-17.14953,106.35862-5.67858,140.88784,6.96312,37.47293,13.72044,62.427,31.7,62.67472,31.87988A2.08515,2.08515,0,0,0,559.40732,499.0052Z"
     transform="translate(-293.32357 -99.71938)"
     fill="#3f3d56"
     id="path8" />
  <path
     d="M655.2196,260.37275a2.09343,2.09343,0,0,0-3.68827-1.50192c-.201.23845-20.307,24.28166-36.928,61.19609-15.36327,34.12475-30.84523,86.58548-17.34326,142.71855a2.09319,2.09319,0,1,0,4.07031-.979c-13.22427-54.983,1.99558-106.49141,17.09108-140.02058,16.38342-36.38756,36.11335-59.982,36.31062-60.21616A2.0852,2.0852,0,0,0,655.2196,260.37275Z"
     transform="translate(-293.32357 -99.71938)"
     fill="#3f3d56"
     id="path10" />
  <path
     d="M652.38648,368.31675c1.76623,14.25037,11.64059,26,26,26a26,26,0,0,0,26-26c0-14.3594-11.70215-24.67241-26-26C663.21558,340.90809,650.11884,350.02107,652.38648,368.31675Z"
     transform="translate(-293.32357 -99.71938)"
     fill="#2f2e41"
     id="path12" />
  <polygon
     points="397.105 687.328 407.006 687.327 411.716 649.137 397.103 649.138 397.105 687.328"
     fill="#ffb6b6"
     id="polygon14" />
  <path
     d="M690.08055,797.37579l30.447-.00116v-.385A11.85149,11.85149,0,0,0,708.67674,785.139H708.676l-5.56152-4.21923-10.37659,4.21991-2.65783.00006Z"
     transform="translate(-293.32357 -99.71938)"
     fill="#2f2e41"
     id="path16" />
  <polygon
     points="358.105 687.328 368.006 687.327 372.716 649.137 358.103 649.138 358.105 687.328"
     fill="#ffb6b6"
     id="polygon18" />
  <path
     d="M651.08055,797.37579l30.447-.00116v-.385A11.85149,11.85149,0,0,0,669.67674,785.139H669.676l-5.56152-4.21923-10.37659,4.21991-2.65783.00006Z"
     transform="translate(-293.32357 -99.71938)"
     fill="#2f2e41"
     id="path20" />
  <path
     d="M724.50065,547.85614l7,24L723.25419,673.501s4.24646,6.35511,1.24646,6.35511-6.84686,1.40942-4.4234,5.20471-5.86,17.4209-5.86,17.4209l-11.71661,72.37439-14.92914-.22046s-7.59009-4.22833-3.3305-8.504,7.25958-4.27557,3.25958-8.27557-4-2.79529-4-5.89765-4.00751-41.01574,5.49628-55.559l-2.86365-59.29529-6.74457,58.16144-13.888,77.59052-14.38171-.11847s-6.64276-6.40271-6.6305-11.14209,4.10419-5.13312,1.05823-7.93628-3.046-45.86615,5.954-69.80316c0,0,5.09108-13.37393-.01155-17.95666s-.00631-9.82652-.00631-9.82652,8.08172-2.92145-.0073-11.33883-.04369-67.94913-.04369-67.94913-8.84271-24.03067.1131-33.47977S724.50065,547.85614,724.50065,547.85614Z"
     transform="translate(-293.32357 -99.71938)"
     fill="#2f2e41"
     id="path22" />
  <path
     d="M599.82611,589.20574l12.48925-30.1823,9.84,5.46667-5.94253,30.70307a10.93464,10.93464,0,1,1-16.38671-5.98744Z"
     transform="translate(-293.32357 -99.71938)"
     fill="#ffb6b6"
     id="path24" />
  <path
     d="M809.4002,350.535l-19.00315,26.56751-8.34544-7.554,12.7447-28.5581A10.93464,10.93464,0,1,1,809.4002,350.535Z"
     transform="translate(-293.32357 -99.71938)"
     fill="#ffb6b6"
     id="path26" />
  <path
     d="M726.38648,550.31675c12.32568,19.11831-49.63137,43.38055-73.40448,33.64-4.1628-1.7056-18.48212-7.33918-8.69439-15.14958s-1.1348-8.90952-1.393-13.99392c-.1726-3.39918,2.45917-10.85592-.28674-10.5362s-5.95975-4.3811.0205-6.404.06411-3.86767.11651-5.78787c.57186-20.95538,16.64979-54.2869,16.64979-54.2869l-28.971,74.05682s.214,12.81223-3.48049,8.897-3.42565,8.75675-3.42565,8.75675-5.49354,3.83389-2.33452,5.9676-3.401,8.6937-3.401,8.6937l-15.30666-1.09334s.23964-11.37068,2.85315-13.88533,1.32975-6.47144,1.32975-6.47144,6.80457-6.02348,2.24268-10.91429c-5.86712-6.29013,15.52417-112.52993,22.90637-111.47784a28.12048,28.12048,0,0,1,20.08017-21.45161l16.53221-4.55191,2.93564-11.64749h23.27852l4.0548,7.65333,17.69783,7.98657c3.33362-4.70352,5.82477-9.65991,19.47546-11.26657,0,0,36.78255-33.46683,34.98668-36.08s3.906-8.73109,3.906-8.73109,4.86956-1.59377,2.12179-2.44467,2.446-2.81826,2.446-2.81826,4.81028-1.264,2.54157-2.92832,7.57128-2.75765,7.57128-2.75765l12.767,10.4168-2.58037,4.37541s1.5733,5.958-.48,3.78289-2.43983,4.1371-2.43983,4.1371-1.0486,6.912-7.26682,8.99446S778.502,404.8635,778.502,404.8635c-14.6648,19.0673-31.97132,33.9415-52.48,43.73331C734.01483,457.77113,726.38648,550.31675,726.38648,550.31675Z"
     transform="translate(-293.32357 -99.71938)"
     fill="#106cfc"
     id="path28" />
  <circle
     cx="387.93692"
     cy="273.08556"
     r="23.0557"
     fill="#ffb6b6"
     id="circle30" />
  <path
     d="M657.38648,375.31675c.73,5.01,5,12,4,12s-8.11-20.65332-1-22c5.15722-.97681,6.31-.12,11.13-2.21l-.68.64c3.19,2.32,7.63.89,11.27-.62,3.65-1.5,8.08-2.93,11.28-.62,2.01,1.45,2.86,3.97,4.11,6.11,1.25,2.15,3.56,4.18,5.94,3.52,1.91-.53,3.01-2.67005,3-4.65s-2.58825-3.86355-1.72-5.64c2.57319-5.26444.25916-8.85275-5.35-11.33q-3.06-.465-6.12-.95a17.35842,17.35842,0,0,1,3.84-3.86,8.77436,8.77436,0,0,0-3.1-3.97c-1.63-.97-3.65-.9-5.54-.8q-6.33.33-12.65.66c-3.12.16-6.35.35-9.13995,1.78-3.48,1.79-5.76,5.28-7.42005,8.83C655.51648,360.18675,656.10645,366.60679,657.38648,375.31675Z"
     transform="translate(-293.32357 -99.71938)"
     fill="#2f2e41"
     id="path32" />
  <path
     d="M561.476,799.97328l226.75.30734a1.19068,1.19068,0,1,0,0-2.38137l-226.75-.30733a1.19068,1.19068,0,0,0,0,2.38136Z"
     transform="translate(-293.32357 -99.71938)"
     fill="#cacaca"
     id="path34" />
  <ellipse
     cx="471.98821"
     cy="695.09416"
     rx="5.25681"
     ry="7.55666"
     transform="translate(-577.14417 962.36498) rotate(-81.72174)"
     fill="#e6e6e6"
     id="ellipse36" />
  <ellipse
     cx="521.15973"
     cy="690.29611"
     rx="5.2568"
     ry="7.55666"
     transform="translate(-530.30434 1006.91693) rotate(-81.72174)"
     fill="#3f3d56"
     id="ellipse38" />
  <ellipse
     cx="458.5236"
     cy="655.286"
     rx="5.25681"
     ry="7.55666"
     transform="translate(-549.27676 914.96411) rotate(-81.72174)"
     fill="#ff6584"
     id="ellipse40" />
  <ellipse
     cx="441.31304"
     cy="640.04291"
     rx="4.77581"
     ry="3.3223"
     transform="translate(-495.37215 976.78425) rotate(-89.56675)"
     fill="#e6e6e6"
     id="ellipse42" />
  <ellipse
     cx="434.06731"
     cy="609.6713"
     rx="4.77581"
     ry="3.3223"
     transform="translate(-472.19234 939.39678) rotate(-89.56675)"
     fill="#3f3d56"
     id="ellipse44" />
  <ellipse
     cx="490.41248"
     cy="663.12322"
     rx="4.77581"
     ry="3.3223"
     transform="translate(-469.72363 1048.78806) rotate(-89.56675)"
     fill="#e6e6e6"
     id="ellipse46" />
  <ellipse
     cx="466.65067"
     cy="674.98721"
     rx="4.77581"
     ry="3.3223"
     transform="translate(-505.16941 1036.80122) rotate(-89.56675)"
     fill="#ff6584"
     id="ellipse48" />
  <ellipse
     cx="499.72794"
     cy="696.91495"
     rx="4.77581"
     ry="3.3223"
     transform="translate(-494.26937 1091.63947) rotate(-89.56675)"
     fill="#3f3d56"
     id="ellipse50" />
  <ellipse
     cx="849.98821"
     cy="541.09416"
     rx="5.25681"
     ry="7.55666"
     transform="translate(-101.17347 1204.59943) rotate(-81.72174)"
     fill="#e6e6e6"
     id="ellipse52" />
  <ellipse
     cx="899.15973"
     cy="536.29611"
     rx="5.2568"
     ry="7.55666"
     transform="translate(-54.33364 1249.15138) rotate(-81.72174)"
     fill="#3f3d56"
     id="ellipse54" />
  <ellipse
     cx="836.5236"
     cy="501.286"
     rx="5.25681"
     ry="7.55666"
     transform="matrix(0.14398, -0.98958, 0.98958, 0.14398, -73.30606, 1157.19856)"
     fill="#ff6584"
     id="ellipse56" />
  <ellipse
     cx="819.31304"
     cy="486.04292"
     rx="4.77581"
     ry="3.3223"
     transform="translate(33.76519 1201.93792) rotate(-89.56675)"
     fill="#e6e6e6"
     id="ellipse58" />
  <ellipse
     cx="812.06731"
     cy="455.6713"
     rx="4.77581"
     ry="3.3223"
     transform="translate(56.94499 1164.55045) rotate(-89.56675)"
     fill="#3f3d56"
     id="ellipse60" />
  <ellipse
     cx="868.41248"
     cy="509.12322"
     rx="4.77581"
     ry="3.3223"
     transform="translate(59.41371 1273.94173) rotate(-89.56675)"
     fill="#e6e6e6"
     id="ellipse62" />
  <ellipse
     cx="844.65067"
     cy="520.98721"
     rx="4.77581"
     ry="3.3223"
     transform="translate(23.96793 1261.95489) rotate(-89.56675)"
     fill="#ff6584"
     id="ellipse64" />
  <ellipse
     cx="877.72794"
     cy="542.91495"
     rx="4.77581"
     ry="3.3223"
     transform="translate(34.86796 1316.79314) rotate(-89.56675)"
     fill="#3f3d56"
     id="ellipse66" />
  <ellipse
     cx="666.98821"
     cy="256.09416"
     rx="5.25681"
     ry="7.55666"
     transform="translate(24.20544 779.54069) rotate(-81.72174)"
     fill="#fff"
     id="ellipse68" />
  <ellipse
     cx="716.15973"
     cy="251.29611"
     rx="5.2568"
     ry="7.55666"
     transform="translate(71.04527 824.09264) rotate(-81.72174)"
     fill="#3f3d56"
     id="ellipse70" />
  <ellipse
     cx="653.5236"
     cy="216.286"
     rx="5.25681"
     ry="7.55666"
     transform="translate(52.07285 732.13983) rotate(-81.72174)"
     fill="#ff6584"
     id="ellipse72" />
  <ellipse
     cx="636.31304"
     cy="201.04292"
     rx="4.77581"
     ry="3.3223"
     transform="translate(137.1408 736.09819) rotate(-89.56675)"
     fill="#e6e6e6"
     id="ellipse74" />
  <ellipse
     cx="629.06731"
     cy="170.6713"
     rx="4.77581"
     ry="3.3223"
     transform="translate(160.32061 698.71071) rotate(-89.56675)"
     fill="#3f3d56"
     id="ellipse76" />
  <ellipse
     cx="685.41248"
     cy="224.12322"
     rx="4.77581"
     ry="3.3223"
     transform="translate(162.78933 808.102) rotate(-89.56675)"
     fill="#e6e6e6"
     id="ellipse78" />
  <ellipse
     cx="661.65067"
     cy="235.98721"
     rx="4.77581"
     ry="3.3223"
     transform="translate(127.34354 796.11516) rotate(-89.56675)"
     fill="#ff6584"
     id="ellipse80" />
  <ellipse
     cx="694.72794"
     cy="257.91495"
     rx="4.77581"
     ry="3.3223"
     transform="translate(138.24358 850.95341) rotate(-89.56675)"
     fill="#3f3d56"
     id="ellipse82" />
  <path
     style="fill:#2596be;stroke-width:0.854343;fill-opacity:1"
     d="m 361.63144,484.50363 c -6.82672,-2.22663 -13.91386,-7.35978 -13.91386,-10.0777 0,-0.34965 1.73004,-2.58366 3.84454,-4.96448 2.1145,-2.38081 3.84455,-5.07145 3.84455,-5.97919 0,-0.90774 -1.20507,-3.02294 -2.67793,-4.70043 -2.58545,-2.94467 -2.65833,-3.24132 -2.11032,-8.59018 0.49633,-4.84451 0.37666,-5.60833 -0.95303,-6.08295 -4.19675,-1.49801 -4.26995,-3.73397 -0.17774,-5.42902 2.47374,-1.02466 3.38198,-3.60137 1.6473,-4.67346 -1.83179,-1.13211 -0.0143,-15.35755 3.05622,-23.9216 0.4267,-1.19011 0.33699,-1.44941 -0.29559,-0.85435 -1.54129,1.44986 -17.28374,42.74432 -17.29612,45.36996 -0.0226,4.78855 -0.84775,6.34907 -3.0632,5.79303 -1.63721,-0.41092 -2.19176,-0.0711 -2.8927,1.77249 -0.47695,1.25449 -0.86718,3.23256 -0.86718,4.39571 0,1.16316 -0.85215,3.26743 -1.89366,4.67615 -1.58243,2.14035 -1.72285,2.83484 -0.85435,4.22553 1.43026,2.2902 1.31893,3.16681 -0.77583,6.10864 l -1.81516,2.54915 -7.36903,-0.59788 c -4.05297,-0.32884 -7.45563,-0.67023 -7.56148,-0.75864 -0.71751,-0.59936 1.8361,-11.25603 3.28613,-13.71366 0.98037,-1.66159 1.57185,-3.56998 1.31441,-4.24086 -0.25744,-0.67088 0.25552,-2.13969 1.13992,-3.26401 2.4671,-3.13641 2.96781,-6.29836 1.38091,-8.72028 -1.91123,-2.91692 -1.78306,-12.07573 0.38602,-27.58303 4.68473,-33.49244 16.47859,-81.04777 20.7601,-83.70916 0.57564,-0.35782 1.54514,-2.20288 2.15443,-4.10015 1.62083,-5.04703 6.44208,-11.22681 11.02747,-14.13477 3.69244,-2.34168 6.42014,-3.31484 19.88882,-7.09572 l 4.75913,-1.33597 1.23726,-5.36035 1.23726,-5.36036 11.51764,-0.23271 11.51764,-0.23271 1.92979,3.65404 c 1.76118,3.33479 2.72372,4.00906 11.01671,7.71733 l 9.08691,4.06328 2.95817,-3.45595 c 3.5008,-4.08991 8.15793,-6.64815 13.41408,-7.36858 3.57183,-0.48958 4.88165,-1.57257 20.93414,-17.30893 14.64324,-14.35486 17.12436,-17.15442 17.12709,-19.32525 0.003,-3.03359 2.62123,-7.60732 5.11821,-8.94366 1.16649,-0.62428 1.62877,-1.48609 1.31963,-2.46011 -0.34771,-1.09555 0.27381,-1.82913 2.30838,-2.72458 1.53132,-0.67396 2.78422,-1.80206 2.78422,-2.50689 0,-1.5496 1.73424,-2.42229 4.97399,-2.50298 1.7225,-0.0429 4.09864,1.32835 8.32114,4.80207 5.77082,4.74747 5.87911,4.90956 4.59216,6.87369 -0.72492,1.10636 -1.09468,2.71529 -0.82169,3.5754 0.34023,1.07196 -0.009,1.69588 -1.109,1.98364 -1.12066,0.29306 -1.78128,1.52008 -2.18809,4.06417 -0.58641,3.66723 -3.22833,6.92654 -8.52097,10.51225 -2.66021,1.80226 -5.69166,7.46473 -7.86465,14.69042 -0.84786,2.81933 -3.10482,7.224 -5.01545,9.78816 -5.22866,7.01705 -17.96388,19.4398 -26.48433,25.8345 -6.12937,4.60017 -19.19314,12.73259 -22.03247,13.7156 -0.33939,0.11749 0.0451,1.94368 0.85434,4.05818 1.28893,3.36776 1.4701,7.44689 1.46081,32.8922 -0.006,15.97621 -0.5068,36.35229 -1.11328,45.28018 -1.23038,18.11256 -1.25262,19.17003 -0.49911,23.72718 0.746,4.51181 -0.80372,7.62423 -6.29523,12.64315 -6.04595,5.52566 -20.84299,12.79114 -32.2359,15.82811 -10.40468,2.77354 -27.56536,3.6527 -33.50217,1.71634 z"
     id="path981" />
  <path
     style="fill:#2596be;fill-opacity:1;stroke-width:0.854343"
     d="m 359.25121,483.16274 c -7.66756,-3.05876 -12.89758,-8.8121 -9.76851,-10.74596 1.75811,-1.08657 5.92397,-7.5006 5.92397,-9.12092 0,-0.90063 -0.96114,-2.89761 -2.13586,-4.43775 -1.7821,-2.33646 -2.13586,-3.73879 -2.13586,-8.46674 0,-5.10149 -0.21296,-5.80601 -2.13586,-7.06594 -2.76566,-1.81213 -2.69218,-2.58007 0.39983,-4.17901 l 2.53569,-1.31126 -0.49663,-6.61336 c -0.38416,-5.11573 -0.0845,-8.3352 1.32324,-14.21686 1.00093,-4.18193 1.62457,-7.79881 1.38587,-8.03751 -1.06255,-1.06256 -15.79191,36.75125 -17.85542,45.83917 -0.818,3.60252 -1.5138,4.9025 -2.73806,5.11556 -2.08971,0.36369 -3.77723,2.51844 -3.77723,4.82305 0,0.98556 -0.78591,3.31492 -1.74646,5.17636 -1.20838,2.34169 -1.59057,4.24369 -1.24049,6.17336 0.33918,1.86962 0.0206,3.61061 -0.96651,5.28163 -1.38406,2.34304 -1.73277,2.4678 -5.80784,2.07787 -9.15073,-0.8756 -9.88859,-1.11585 -9.88859,-3.21979 0,-1.08049 0.79633,-4.23482 1.76962,-7.00961 0.97329,-2.77481 1.96238,-6.00623 2.19798,-7.18095 0.2356,-1.17472 1.20901,-3.60442 2.16313,-5.39933 1.30868,-2.46188 1.56841,-3.93081 1.05745,-5.9804 -0.37252,-1.49431 -0.66132,-8.09929 -0.64177,-14.67773 0.0284,-9.55678 0.58394,-15.0517 2.76401,-27.33898 5.37207,-30.27798 13.86125,-63.60911 17.60632,-69.12777 1.019,-1.50157 2.8323,-4.86982 4.02957,-7.485 4.5053,-9.84087 10.15822,-13.81194 26.06524,-18.31036 l 8.74118,-2.47196 0.99069,-4.41627 c 0.54487,-2.42896 1.22485,-4.79516 1.51105,-5.25825 0.2862,-0.46308 5.43889,-0.96092 11.45043,-1.10632 l 10.93006,-0.26436 2.05903,3.45284 c 1.74469,2.92572 3.35465,4.06226 10.54599,7.44487 4.66783,2.19562 8.7646,3.99203 9.10393,3.99203 0.33933,0 2.71022,-1.91312 5.26865,-4.25138 2.87726,-2.62966 6.01896,-4.62162 8.23604,-5.22196 1.9714,-0.53382 4.73772,-1.38803 6.14739,-1.89825 1.40966,-0.51022 9.78352,-8.04206 18.60857,-16.73743 14.56421,-14.35019 16.1632,-16.2145 17.32007,-20.19395 0.73941,-2.54348 2.34237,-5.40728 3.81793,-6.82095 1.39886,-1.3402 2.5434,-2.79425 2.5434,-3.23122 0,-0.43696 1.53826,-2.2873 3.41835,-4.11187 4.62034,-4.48389 6.95685,-4.38205 13.57328,0.59161 5.99156,4.50394 6.6216,5.28453 5.31772,6.58842 -0.52293,0.52292 -0.95077,1.98611 -0.95077,3.25152 0,1.26542 -0.55654,2.51432 -1.23674,2.77534 -0.6802,0.26102 -1.67745,2.11123 -2.21608,4.11159 -0.73223,2.71929 -2.43796,5.04779 -6.76007,9.22818 -4.22912,4.09044 -6.18663,6.73775 -7.29298,9.86289 -3.28863,9.28951 -6.43777,14.81445 -12.17413,21.35858 -10.15052,11.57989 -24.17321,22.83776 -38.50588,30.91375 -3.28644,1.85181 -5.22799,3.46456 -4.97248,4.13041 2.50961,6.53995 2.77175,35.62819 0.85037,94.36001 l -0.54408,16.63091 -4.85546,4.85546 c -3.78862,3.78861 -7.18885,5.99886 -15.4753,10.05935 -14.28124,6.99806 -21.12671,8.7075 -36.6773,9.15903 -10.908,0.31672 -12.89831,0.15611 -16.65969,-1.34439 z"
     id="path1057" />
  <path
     style="fill:#2596be;fill-opacity:1;stroke-width:0.854343"
     d="m 359.25121,483.16274 c -4.90874,-1.95821 -10.67929,-6.40819 -10.67929,-8.23539 0,-0.68445 1.53782,-3.18994 3.41738,-5.56775 1.87955,-2.37781 3.41737,-4.96844 3.41737,-5.75694 0,-0.78851 -0.96114,-2.84809 -2.13586,-4.57685 -1.7316,-2.54827 -2.13586,-4.18425 -2.13586,-8.64349 0,-4.92423 -0.22369,-5.64687 -2.13586,-6.89976 -2.73429,-1.79159 -2.69306,-2.72225 0.18751,-4.23153 2.2997,-1.20493 2.32442,-1.31178 2.42795,-10.49299 0.0657,-5.82815 0.63884,-11.14667 1.54199,-14.30971 0.79057,-2.76872 1.24079,-5.23066 1.00049,-5.47096 -0.97883,-0.97883 -15.1364,35.20935 -17.46941,44.65357 -1.2412,5.0245 -1.79489,6.03167 -3.54276,6.44428 -1.35191,0.31914 -2.3278,1.36674 -2.80897,3.01537 -0.40554,1.38948 -1.44625,4.44859 -2.3127,6.79803 -0.87402,2.36998 -1.3662,5.28846 -1.10554,6.55555 0.28858,1.40287 -0.11594,3.27544 -1.04869,4.85447 -1.43634,2.43152 -1.75311,2.54817 -5.85388,2.15579 -9.29627,-0.88953 -9.88859,-1.0917 -9.88859,-3.37524 0,-2.70231 3.96388,-15.14864 6.2029,-19.47674 1.55771,-3.0111 1.61235,-3.71349 0.6129,-7.87965 -2.99592,-12.48839 4.08651,-58.01479 14.64473,-94.13752 3.54773,-12.13781 10.56604,-26.49879 15.38344,-31.47786 3.49326,-3.61049 9.70861,-6.5084 20.16619,-9.40251 l 8.73977,-2.41872 0.99209,-4.43309 c 0.54564,-2.43821 1.22619,-4.7971 1.51233,-5.242 0.28614,-0.4449 5.44229,-0.99442 11.4581,-1.22116 l 10.93784,-0.41225 1.20586,2.33188 c 1.84642,3.57058 5.41555,6.15057 13.47919,9.74359 l 7.36523,3.28183 4.78184,-4.37033 c 2.98926,-2.73201 6.12552,-4.73418 8.36619,-5.34091 7.47804,-2.02491 9.1296,-3.28473 25.07054,-19.12394 14.11945,-14.02934 16.43702,-16.7015 16.92156,-19.51048 0.33521,-1.94334 1.74679,-4.56684 3.50334,-6.51112 1.61806,-1.791 2.94192,-3.5431 2.94192,-3.89355 0,-0.35045 1.53826,-2.13001 3.41835,-3.95458 5.10565,-4.95487 8.35516,-4.40417 16.56898,2.808 2.93191,2.57436 3.21131,3.13922 2.34944,4.74963 -0.538,1.00528 -0.97819,2.58084 -0.97819,3.50123 0,0.9204 -0.55654,1.88701 -1.23674,2.14803 -0.6802,0.26102 -1.67208,2.09132 -2.20416,4.06733 -0.71041,2.63822 -2.49059,5.08999 -6.70045,9.22819 -5.00848,4.92322 -6.08223,6.5657 -8.49627,12.99639 -3.70951,9.88165 -6.67322,14.15439 -16.82036,24.24973 -9.63878,9.58956 -17.96877,16.17836 -28.48926,22.53423 -10.11898,6.11329 -9.49983,5.23189 -8.03182,11.43403 1.06074,4.48148 1.1682,11.0524 0.67401,41.21392 -0.32336,19.73532 -0.84743,42.55567 -1.1646,50.7119 l -0.57668,14.82949 -4.97393,4.62695 c -3.51043,3.26552 -8.03525,6.12694 -15.37817,9.7249 -14.06188,6.89019 -20.96029,8.603 -36.4617,9.0531 -10.908,0.31672 -12.89831,0.15611 -16.65969,-1.34439 z"
     id="path1096" />
  <path
     style="fill:#ff7c3c;fill-opacity:1;stroke-width:0.854343"
     d="m 357.39621,120.51783 c -1.49014,-0.65886 -3.17583,-2.06957 -3.74598,-3.1349 -0.91214,-1.70435 -0.7606,-2.1744 1.26189,-3.91407 2.70712,-2.32857 4.74496,-2.47279 8.66387,-0.61315 3.586,1.70167 4.54246,4.25605 2.38582,6.37168 -2.24713,2.20439 -5.4181,2.68211 -8.5656,1.29044 z"
     id="path1135" />
  <path
     style="fill:#ff7c3c;fill-opacity:1;stroke-width:0.854343"
     d="m 366.68399,139.5142 c -1.42775,-1.42775 -1.28172,-5.38742 0.24543,-6.65484 1.94219,-1.61188 3.85542,-0.39246 3.85542,2.45731 0,4.78748 -1.735,6.56338 -4.10085,4.19753 z"
     id="path1211" />
  <path
     style="fill:#ff7c3c;fill-opacity:1;stroke-width:0.854343"
     d="m 367.53834,139.5142 c -1.5045,-1.5045 -1.27595,-5.76694 0.34252,-6.38801 1.79713,-0.68962 2.96047,1.30109 2.33096,3.98876 -0.68431,2.92163 -1.45735,3.61538 -2.67348,2.39925 z"
     id="path1250" />
  <path
     style="fill:#ff7c3c;fill-opacity:1;stroke-width:0.854343"
     d=""
     id="path1289" />
  <path
     style="fill:#ff7c3c;fill-opacity:1;stroke-width:0.854343"
     d="m 538.87682,404.89707 c -2.89305,-1.5695 -3.30192,-5.77622 -0.69693,-7.17037 2.70287,-1.44653 7.33458,-1.02618 9.7659,0.88629 5.98923,4.71114 -1.89641,10.17526 -9.06897,6.28408 z"
     id="path1328" />
  <path
     style="fill:#ff7c3c;fill-opacity:1;stroke-width:0.854343"
     d="m 541.03239,405.22124 c -3.31305,-0.87545 -4.94717,-3.39338 -3.70663,-5.71136 1.10058,-2.05645 4.22358,-2.64359 7.77561,-1.46185 7.62272,2.53601 3.81113,9.25547 -4.06898,7.17321 z"
     id="path1367" />
  <path
     style="fill:#ff7c3c;fill-opacity:1;stroke-width:0.854343"
     d="m 549.8602,424.57691 c -2.35275,-2.35275 -1.50791,-7.23038 1.25235,-7.23038 3.23475,0 4.11819,5.28394 1.2776,7.64143 -0.87672,0.7276 -1.49112,0.62778 -2.52995,-0.41105 z"
     id="path1406" />
  <path
     style="fill:#ff7c3c;fill-opacity:1;stroke-width:0.854343"
     d="m 163.72846,559.92958 c -5.34415,-1.45236 -7.27307,-5.52631 -3.77623,-7.97559 3.13906,-2.19868 7.26958,-1.6908 10.21658,1.2562 2.38048,2.38047 2.48803,2.73395 1.3523,4.44445 -1.51008,2.2743 -4.54009,3.15887 -7.79265,2.27494 z"
     id="path1445" />
  <path
     style="fill:#ff7c3c;fill-opacity:1;stroke-width:0.854343"
     d="m 171.96017,578.60376 c -2.29937,-2.97165 -1.48451,-7.4755 1.35251,-7.4755 2.60057,0 3.78773,5.38725 1.65676,7.51822 -1.302,1.302 -1.97618,1.29243 -3.00927,-0.0427 z"
     id="path1484" />
</svg>
